<?xml version="1.0" encoding="utf-8"?>
<!-- Generator: Adobe Illustrator 22.0.0, SVG Export Plug-In . SVG Version: 6.00 Build 0)  -->
<svg version="1.1" id="Capa_1" xmlns="http://www.w3.org/2000/svg" xmlns:xlink="http://www.w3.org/1999/xlink" x="0px" y="0px"
	 viewBox="0 0 2350.5 577.9" style="enable-background:new 0 0 2350.5 577.9;" xml:space="preserve">
<style type="text/css">
	.st0{fill:#748DC7;}
	.st1{fill:#1C2D51;}
	.st2{fill:#050505;}
	.st3{fill:#CEDE71;}
	.st4{fill:#CCDC72;}
	.st5{fill:#96C53E;}
	.st6{fill:#AA63A2;}
	.st7{fill:#3E7B2B;}
	.st8{fill:#763978;}
	.st9{fill:#EAEFB8;}
	.st10{fill:#530D29;}
	.st11{fill:#17140C;}
	.st12{fill:#DAE4AE;}
	.st13{fill:#F3F2F1;}
	.st14{fill:#595959;}
	.st15{fill:#BCBDB8;}
	.st16{fill:#D78174;}
	.st17{fill:#804A41;}
	.st18{fill:#EFBC1B;}
	.st19{enable-background:new    ;}
	.st20{fill:#D62D2D;}
	.st21{fill:none;stroke:#FFFFFF;stroke-width:4;stroke-miterlimit:10;}
</style>
<g>
	<path class="st0" d="M2031.7,157.6H663.6C617.5,80.7,533.3,29.2,437.1,29.2C291.3,29.2,173,147.4,173,293.3
		s118.2,264.1,264.1,264.1c99.7,0,186.6-55.3,231.5-136.9h1363.2c72.6,0,131.4-58.8,131.4-131.4l0,0
		C2163.1,216.4,2104.3,157.6,2031.7,157.6z"/>
	<path class="st1" d="M437.1,572.3c-74.5,0-144.6-29-197.3-81.7C187,437.9,158,367.8,158,293.3S187,148.7,239.7,96
		S362.5,14.3,437,14.3c49.1,0,97.3,12.9,139.6,37.4c38.5,22.3,71.3,53.6,95.3,91h1359.8c80.7,0,146.4,65.7,146.4,146.4
		s-65.7,146.4-146.4,146.4H677.2C627,520.1,535.8,572.3,437.1,572.3z M437.1,44.2C299.8,44.2,188,155.9,188,293.3
		s111.7,249.1,249.1,249.1c90.8,0,174.5-49.5,218.3-129.1l4.3-7.8h1372c64.2,0,116.4-52.2,116.4-116.4s-52.2-116.4-116.4-116.4
		H655.1l-4.4-7.3C605.2,89.5,525.4,44.2,437.1,44.2z"/>
</g>
<path class="st0" d="M489.4,63.7l12.6,38.7c1.3,4,5.1,6.7,9.3,6.7H552c9.5,0,13.4,12.1,5.7,17.7l-32.9,23.9
	c-3.4,2.5-4.9,6.9-3.5,10.9l12.6,38.7c2.9,9-7.4,16.5-15,10.9L486,187.3c-3.4-2.5-8.1-2.5-11.5,0l-32.9,23.9
	c-7.7,5.6-17.9-1.9-15-10.9l12.6-38.7c1.3-4-0.1-8.4-3.5-10.9l-32.9-23.9c-7.7-5.6-3.7-17.7,5.7-17.7h40.7c4.2,0,8-2.7,9.3-6.7
	l12.6-38.7C473.7,54.7,486.5,54.7,489.4,63.7z"/>
<path class="st0" d="M261.2,145.3l17.7,20.7c1.8,2.1,4.8,2.9,7.5,1.8l25.1-10.4c5.8-2.4,11.4,4,8.1,9.4L305.4,190
	c-1.5,2.4-1.2,5.5,0.6,7.6l17.7,20.7c4.1,4.8-0.3,12.1-6.5,10.6l-26.4-6.3c-2.7-0.7-5.6,0.5-7.1,2.9l-14.2,23.2
	c-3.3,5.4-11.6,3.4-12.1-2.9l-2.1-27.1c-0.2-2.8-2.2-5.2-5-5.8l-26.4-6.3c-6.1-1.5-6.8-10-1-12.4l25.1-10.4c2.6-1.1,4.2-3.7,4-6.5
	l-2.1-27.1C249.2,143.7,257.1,140.4,261.2,145.3z"/>
<path class="st0" d="M593.2,344.2l3.1,26.1c0.3,2.7,2.4,4.9,5,5.5l25.8,5.2c6,1.2,7,9.4,1.4,11.9l-23.9,11c-2.5,1.1-4,3.8-3.6,6.5
	l3.1,26.1c0.7,6.1-6.8,9.5-10.9,5l-18-19.3c-1.9-2-4.8-2.6-7.3-1.5l-23.9,11c-5.6,2.6-11.1-3.5-8.1-8.8l12.9-23
	c1.3-2.4,1-5.4-0.9-7.4L530,373.1c-4.2-4.5-0.1-11.7,5.9-10.5l25.8,5.2c2.7,0.5,5.4-0.7,6.7-3.1l12.9-23
	C584.4,336.5,592.4,338.1,593.2,344.2z"/>
<path class="st0" d="M592.1,166.1l2.8,23.9c0.3,2.5,2.2,4.5,4.6,5l23.6,4.7c5.5,1.1,6.4,8.6,1.3,10.9l-21.9,10.1
	c-2.3,1-3.6,3.4-3.3,5.9l2.8,23.9c0.7,5.6-6.2,8.7-10,4.6l-16.3-17.7c-1.7-1.8-4.4-2.4-6.7-1.3l-21.9,10.1
	c-5.1,2.3-10.2-3.2-7.5-8.1l11.8-21c1.2-2.2,0.9-4.9-0.8-6.8l-16.3-17.7c-3.8-4.1-0.1-10.7,5.4-9.6l23.6,4.7
	c2.5,0.5,4.9-0.7,6.2-2.8l11.8-21C584,159.1,591.4,160.5,592.1,166.1z"/>
<path class="st0" d="M291,348.2l2.8,23.9c0.3,2.5,2.2,4.5,4.6,5l23.6,4.7c5.5,1.1,6.4,8.6,1.3,10.9l-21.9,10.1
	c-2.3,1-3.6,3.4-3.3,5.9l2.8,23.9c0.7,5.6-6.2,8.7-10,4.6l-16.3-17.7c-1.7-1.8-4.4-2.4-6.7-1.3L246,428.3c-5.1,2.3-10.2-3.2-7.5-8.1
	l11.8-21c1.2-2.2,0.9-4.9-0.8-6.8l-16.3-17.7c-3.8-4.1-0.1-10.7,5.4-9.6l23.6,4.7c2.5,0.5,4.9-0.7,6.2-2.8l11.8-21
	C283,341.1,290.4,342.6,291,348.2z"/>
<g>
	<path class="st2" d="M466.4,490.3c-14.4-0.2-29.1-0.4-42.3-6c-12.5-5.3-24.4-3.6-36.9-2.6c-18,1.5-36,1.4-53.2-5.4
		c-16.8-6.6-19.1-20.3-5.6-32.4c2.9-2.6,6-4.7,9.4-6.6c2.7-1.5,3.9-3.5,2.3-6.6c-0.2-0.4-0.5-1-0.5-1.4c1.3-8-4.8-9.5-10.2-11.9
		c-25.2-11.4-44.2-28.8-53.3-55.7c-0.7-2.1-2-3.8-3.4-5.5c-6.3-7.5-11-15.8-12.9-25.6c-1.1-5.6-2.9-10.9-4.9-16.2
		c-6.4-16.2-3.7-31.1,5.9-45.4c6.3-9.4,14.4-17,21.7-25.4c3.1-3.5,5.6-6.7,3.2-11.9c-1.5-3.3,0.3-6.9,1.9-10
		c2.8-5.4,6.7-10.1,11.6-13.5c3.5-2.5,5.7-5.4,7.3-9.5c6.8-17.5,18.2-31.7,33.3-42.7c2.7-2,3-3.6,1.8-6.5
		c-2.6-6.3-5.3-12.6-8.8-18.5c-1.1-1.9-2.3-2.9-4.8-2.5c-16.6,2.6-23.7-12.1-20.5-24.9c4.2-16.7,24.7-29.4,41.6-26.2
		c12.1,2.2,18.8,14.8,14,27c-1.5,3.7-1.2,6.4,0.7,9.8c4,7.1,7.2,14.6,9.8,22.4c1,3.1,2.6,4,5.9,3.3c14.7-3,29.4-3.4,44.1-0.1
		c3.6,0.8,6.8,0.5,10.2-0.8c5-1.8,10.2-3.1,15.3-4.3c2.4-0.6,3.4-1.6,3.2-4.1c-0.3-2.8-0.6-5.6-0.6-8.5c-0.2-6-2.6-9.4-8.7-11.8
		c-12.8-5-15.9-20.6-7.1-31.2c8.9-10.8,24.5-15.4,38-11.4c14.2,4.3,19.6,18.4,11.8,31.6c-1.7,2.9-2,5.3-1.2,8.4
		c2.3,9,4.5,18.1,4.5,27.5c0,2.3,0.8,3.5,3.2,4.2c18.1,5.6,32.8,16.6,46.7,29c16.1,14.5,27.4,32,34.2,52.5c0.6,1.7,1.8,2.3,3.1,3
		c12.2,6.8,20.5,16.8,24.9,30c0.7,2.1,1.9,3.8,3.5,5.3c11.2,10.7,17.6,23.7,18.5,39.2c0.1,1,0.2,2.1,0.7,2.8
		c5.9,8.4,2.8,16.3-1.6,23.9c-8,13.8-19.9,24-33.9,30.9c-13.4,6.6-25,14.2-32.8,27.4c-3.6,6-9.6,10.6-15.5,14.7
		c-3.5,2.5-4.2,5.3-2,9c2.4,4.2,3.1,8.8,2.9,13.5c-0.1,2.9,0.9,4.8,3.4,6.5c15.4,10.8,15.6,28.7,0.8,40.7
		c-11.7,9.5-25.3,14.5-39.7,17.8C492.6,488.9,479.6,490.1,466.4,490.3z M274,268.3L274,268.3c-0.7,0.9-1.4,1.9-2.1,2.9l0.1-0.1
		c-3.9,4.6-6.6,9.9-8.5,15.4c-3.4,9.6-2.8,19,2.7,27.8c0.6,0.7,1.3,1.3,1.9,2c0.4,4.5,0.5,8.9,1.8,13.3c3.1,10.8,9.4,19.6,16.9,27.8
		c1,1.1,3.2,1.7,2.5,4c-4.2-0.3-1.3,2.4-1,3.1c7.5,19.2,21.9,31.6,39.9,40.5c6,3.1,11.8,6.6,18.2,8.6c3.5,1.1,4.9,3,3.9,6.5
		c-0.1,0.9,0.1,1.6,0.8,2.2c0.2,0.2,0.3,0.5,0.3,0.8c0,0.5,0,1,0,1.6c-2.3,2.2-0.5,9.4,2.9,11.8c-0.7,1.4-6.2,0.2-2.4,4.2
		c0,0-0.9,1-1.4,1.5c-5.3,1.6-9.6,4.8-13.6,8.4c-2.6,2.4-5.7,4.6-5.7,8.8c-2.1,2-0.2,3.2,0.9,4.3c2.3,2.3,5.2,3.6,8.2,4.5
		c17.8,5.1,35.8,5.3,54,2.3c5,0.2,9.8-0.7,14.3-3.1c-1.5,0-2.9,0-4.4,0c1.7-1.6,3.9-1.4,5.9-2.1c1.1,0,2.1,0,3.2,0
		c0,0.5,0.1,0.9,0.1,1.4c0.8,3.7,4.2,4.3,7,5.7c12.5,6.1,26,7,39.6,7.7c11.6,0.6,23.2-0.1,34.6-2.5c2.9-0.4,6-0.5,8.8-1.2
		c12.2-3.1,24.2-6.6,34.1-15c1.6-1.4,3.8-2.4,3.9-4.9l0,0c0.2-0.1,0.5-0.1,0.7-0.2c-0.2-0.3-0.5-0.5-0.7-0.8
		c-0.7-0.4-1.4-0.7-2.2-1.1c0-0.3,0-0.6-0.1-0.9c0.8-0.9,1.8-1.6,2.3-2.6c1.3-2.4,6.3-2.5,4.2-6.7c-1.3-2.6-2.4-5.4-4.9-7.3
		c-1.9-1.4-3.5-3-5.5-4.1c-2.9-1.5-4-3.6-3.8-6.8c0.1-3.3,0.1-6.6-0.3-9.9c-0.4-3.3-1.9-4.4-4.7-1.7c0.2-1.8,0.7-3.7,0.4-5.4
		c-0.6-3.6,1.6-7.8-2.4-10.6c0-0.6,0-1.3,0-1.9c2.1-1.4,4.1-2.7,6.2-4.1c3-1.2,5.3-3.2,7.7-5.3c10.7-9.2,18.3-20.7,25.1-32.8
		c0-0.2,0.1-0.3,0.1-0.5l0.1-0.3c0.3,0.4,0.6,0.7,1,1.1c0,1.2,0.5,2.1,1.8,1.6c9.3-3.9,18.7-7.5,26-14.8v-0.1
		c0.9,0.1,1.6-0.1,1.9-0.9c5.5-3.7,10.4-8.1,14.7-13.2c3.4-4,6.5-8.3,7.4-13.7c0.3-1.6,1.4-3.8-1.8-4c-0.4-0.6-0.8-1.3-1.2-1.9
		c0.4-3.8-0.9-7.4-1.1-11.1c-1.2-12.5-7.6-22.4-15.9-31.2c-1.4-1.5-3.1-2.7-3.7-4.6c-3.8-14.1-13.5-23.2-25.5-30.4
		c-1.2-0.7-3-1.2-3.1-2.9c-0.2-5.3-2.8-9.8-5-14.3c-15.9-32.1-39.9-54.9-75-65c-3.8-1.1-4.4,0.4-4.4,3.4c-0.5,0.4-0.2,1.5-1.1,1.2
		c-0.2-0.1-0.4-1.1-0.3-1.6c0.3-5.3,1.7-10.6,0.4-16c-0.2-10.5-2.2-20.7-5.6-30.6c-0.5-1.6-0.6-4.3-3.7-3.4c0.2-0.3,0.2-0.6-0.2-0.8
		c0.2-0.2,0.2-0.3,0.1-0.6c7.4-2.7,10.2-6.5,9.9-13.3c-0.6-2.5-1.8-4.7-3.9-6.3c-8-6.3-22.6-4.3-30.1,4c-0.3,0.4-0.6,0.7-1,1.1
		c-5.7,7.4-2.8,15.6,6.1,17.2l0.3,0.3h0.5c4,1.2,8.1,0.4,12.2,0.5c-0.6,2-5.1,0.2-3.9,4.1c1.1,3.9,1.9,7.9,2.8,11.8
		c0.4,2.8-0.4,5.8,1,8.6c-0.4,6.5,1.5,13.1-0.9,19.4c-0.3,0-0.5,0-0.8,0.1c-0.1-1.6,0.1-3.2-2.5-3.1c-13.7,0.4-26.1,4.2-36.5,13.4
		c-1.9-1,0.2-2.1-0.1-3.2c1.2-1.2,4.1-1,3.7-3.3c-0.2-1.5-2.5-1.4-3.8-1.6c-16.1-2.7-32-2.3-47.9,1.7c-2.3,0.6-3.6,1.8-4.3,4.3
		c-0.7-1.4-1.1-2.3-1.6-3.3c-1-7.5-4.4-14.1-7.4-20.9c-0.2-0.4-0.4-0.7-0.7-1.1l0.1,0.1c-3.3-7.5-6.2-15.2-12.4-20.7
		c0.8-1,1.7-2.1,2.6-3.2c5.5-6,5.9-11,1.5-16.2c0.1-0.7-0.3-0.8-0.8-0.9h0.1c-6.7-4.7-13-2.3-19.3,0.9l0.2-0.1
		c-0.9,0.1-1.7,0.4-2.3,1.2c-6,2.8-9.8,7.8-12.1,13.7c-1.4,3.5-2.1,7.8,2.3,10.5l0,0c5.4,6.8,11.4,2.7,17.2,0.9
		c0.3-0.1,0.6-0.1,1-0.2c2,0.5,2.1,0.7,1.8,0.9c-3.5,2.3-0.4,4.2,0.4,6.1c0.9,2.2,2.4,4.2,3.6,6.3c4,8.8,8.2,17.4,10.6,26.8
		c0.5,2,1.8,4.3-0.5,6.1c-0.1-5.6-3.2-1.6-4.2-1c-14.1,9.4-24.7,21.9-32.1,37.2c-1.8,3.8-0.6,8.4-3.5,11.3
		c-3.3,3.4-7.6,5.9-11.2,9.1c-8.5,7.8-8.8,11.3-2.7,21c-0.1,0.5-0.1,1-0.2,1.5c-0.3-0.1-0.6-0.1-0.9-0.1c-1.8-2.4-2,0.1-2.7,0.9
		c-0.1,0.3-0.3,0.5-0.4,0.8c-2.4,3.1-4.8,6.1-7.2,9.2c-0.2,0.3-0.5,0.5-0.7,0.8c-0.7,0.7-1.4,1.4-2.1,2.2c-3.3,3.6-6.6,7.2-9.9,10.8
		C275,266.5,274.5,267.3,274,268.3z"/>
	<path class="st3" d="M461.3,147.3c0.2-0.1,0.5-0.1,0.8-0.1c1.2,1,1.9,0.4,1.9-0.8c0.1-6.8,0-13.7,0-20.5c-0.2,0-0.4,0-0.6,0
		c-0.1,0.6-0.3,1.3-0.4,1.9c-1.4-2.7-0.6-5.7-1-8.6c1.8-3.6,2.3-7.5,2.8-11.4c0.2-1.8,1.5-4.5-1.7-5.4c-4.1-2.6-8.1-0.2-12.1,0.4
		h-0.5l-0.3-0.3c-1.5-2.7-4.6-3.8-6.4-6.5c-2.7-4.1,1.4-7.2,0.3-10.7c0.3-0.4,0.6-0.7,1-1.1c2.4,2.6-0.9,7.2,3.3,9.1
		c3.4,2,6.7,4.1,10.9,2.2c3.2,0,6.2-0.5,8.8-2.5c0.6-0.2,1.2-0.4,1.8-0.7c2,0.1,3.8,0.2,4.4-2.6c0.4-2.4,2.3-3.4,4.7-3.3
		c0.4,6.8-2.4,10.6-9.9,13.3c-0.2-0.1-0.4-0.3-0.6-0.4c0.2,0.3,0.3,0.6,0.5,0.9c0.3,0.2,0.4,0.4,0.2,0.8c0.7,2.3,1.4,4.7,2,7
		c1.8,8.1,5.4,15.8,4.9,24.4c0,4.5,0,9,0,13.5c0,8.7,0,8.7,7.9,6.7c11,2.9,21,7.3,30.3,14.2c19.6,14.5,34.7,32,42,55.6
		c0.9,2.9,2.3,5.4,5.2,7.5c10.1,7.3,19.6,15.4,24.3,27.5c2,5.1,4.4,9.5,8.7,13.2c6.4,5.6,12.1,12.1,14.9,20.5
		c0.6,1.8-0.3,4.7,2.7,5.4c0.1,3.7,1.5,7.3,1.1,11.1c-0.6,3-3.3,3.1-5.4,3.6c-6.2,1.6-12.5,1.7-18.7-0.1c-2.1-4-6.1-5.9-9.5-8.4
		c-7.4-5.3-11.6-12.6-14.4-21c-0.4-1.3-0.4-3.4,0.3-4.3c1-1.2,2.2,0.5,3.4,1c3.5,1.5,6.9,3.2,10.5,4.2c2.6,0.8,6.9,1.9,7.6-0.5
		c0.8-3-4-2.2-5.9-3.8c-0.4-0.7-0.7-1.5-1.1-2.2c1.2-2,3.6-3.8,0.4-6.2c-5-3.9-10.1-7.6-13.7-13.3c-2,4.3,1.5,7.1,1.4,10.5
		c-1.8,0.7-3.1,0.2-3.8-1.7c-0.7-1.8-1.5-3.6-2.4-5.4c-1-2.2-4.2-6.4-5-6.8c-1.7-2.8-0.4-6.6-2.9-9.1c-0.4-0.5-0.7-0.4-1,0.1l0,0
		c-3.4,3.2-3.9,6.9-2,11c0,0.7-0.1,1.4-0.1,2c-0.3,0.4-0.6,0.8-0.8,1.2c0.4,4.1-1.2,7.8-2.5,11.6c-0.6,1.8-1.5,4.1,0.1,5.1
		c4.6,3.1,7.6,8.4,13.3,10c4.7,7.7,6.8,16.3,8.5,25c-3.1,1.8-2.8,5.5-4.5,8.1c-2.7,4.1-5.4,8.3-11,8c-5.8-0.3-9.5-3.9-12.1-8.9
		c0.4-3-0.2-6,1.5-9.1c2-3.5-1.3-7.6-5.5-8l-0.2-0.2l0.1-0.2c-0.3-2,1.3-4.6-1.9-5.6c-0.2-0.3-0.4-0.5-0.6-0.8c3-1.8,3-4.7,2.4-7.4
		c-0.6-2.9-3.2,0-4.6-1.2c-0.3-0.3-0.9-0.4-1.4-0.6c-1.2,0-1.8-0.7-1.9-1.9c0.2-1.5,0.9-1.9,2.4-1.7c1.8,0.3,1.6-1.3,1.6-2.4
		c0-0.9-0.4-2-1.4-1.3c-3.6,2.4-6.6-1.4-10-0.9c-0.8,0.1-2.1-0.9-1.9-1.3c1.9-3.2,0.8-4.8-2.4-6c-0.8-0.3-0.4-3.1-2.4-1.9
		c-1.5,0.9,0,2,0.6,2.9c0.6,0.9,0.9,2.1-0.1,2.7c-1.3,0.8-2.2-0.5-2.8-1.4c-1-1.6-2.1-2.9-4.3-2.9c-1.4,0-3.6,0.6-4.1-0.9
		c-0.6-1.7,0.9-3.3,2-4.7c0.8-1,2-1.6,3.1-2.4c3.3-2.3,4-6.8,1.6-10.1c0.2-1.9-0.6-2.8-2.5-3c1.3-0.8,2.5-1.5,3.8-2.3
		c6.7-4.3,7.7-12,2.3-18.1c-3.4-0.6-4.3,1.6-4.5,4.3c-0.3,4.8-2.9,7.5-7.3,8.9c-2.5,0.8-5,1.6-7.5,2.4c-1.8-0.7-3.5-1.5-5.3-2.2
		c-0.5-0.8-0.8-1.8-2.1-0.9l0.1,0.1c-3.3-4.3-8.5-5.5-13.2-7.2c-9.1-3.5-18.6-4.8-28.3-2.7c-6.4,0.9-12.6,2.5-18.6,5
		c-0.9,0.1-1.8,0.2-2.7,0.3c-6.4-1-12.3,2-18.5,2.5c-2.1,0.2-4.6,1-6-1.1c-1.6-2.3-0.7-4.7,0.3-7.1c1.3-3,4.3-4.9,5.2-8.5
		c-3.2-0.1-5.1,3.8-8.4,2.3c-4,0.1-2.2,4.7-4.4,6c-1.9,0-0.5-2.6-2.4-2.6l0.1,0.1c-0.3-0.6-0.5-1.2-0.8-1.8
		c-0.4-0.5-0.6-1.2-1.1-1.6c-1.1-0.9-1.8-3-3.5-1.9c-1.2,0.8-0.2,2.4,0.1,3.7c0.5,2.3,1.2,4.5,1.3,6.8c0.3,5.8-2.1,7.5-7.6,5.5
		c-17-6.4-34.4-11.3-52.8-7.6c-5.3,1.1-11.2,1.4-14.6,6.8c-1,0.4-1.9,0.8-2.9,1.2c-4-0.3-4.6-5.3-8.3-6c-1.5-4.4,0.9-7.9,3.7-10.5
		c8.9-8,18.6-14.8,30.8-16.6c4.8,0.6,9.5,1.6,14,3.6c-2,0.9-4.5,0.5-7,2.5c11.2,3.9,21,9.6,31.1,15.8c0.1-2.7-1.6-3.7-2.7-5
		c-0.8-0.9-2.3-1.6-1.2-3.2c2-0.1,4.1-0.1,5-2.2c0.5-1.3-0.4-2.1-1.7-2.3c-6.4-4.2-13.1-7.8-20.8-9c-2.2,0-4.4,0-6.6,0
		c-3.4-0.7-6.8-1.3-10.1-2c-2.4-0.2-4.6-1.4-7.3-0.3c-1.9,0.8-4.6,0.7-6.1-1.1c-1.5-1.9-0.2-4.2,0.8-6c2.6-4.8,5.1-9.8,8.5-14
		c6-7.5,12.4-14.8,21.6-18.7c2.3-1.8,1-4.1,0.5-6.1c-2.4-9.4-6.6-18-10.6-26.8c0.8-4.2-1.2-8.1-1.1-12.3c0-3.6-2.4-4-4.7-0.9
		c-0.3,0.1-0.6,0.1-1,0.2c-2.6-0.9-5.1,0.3-7.5,0.8c-3.6,0.9-6.2-3.3-9.7-1.7l0,0c1.1-3-1.8-6.8,2.1-9.2c2.4,6.3,5,7.2,12.1,4h-0.1
		c0.2-0.2,0.4-0.4,0.6-0.7c2.1-0.7,4.3-1.4,6.4-2c0.5-0.4,0.6-0.8,0.2-1.3l-0.1,0.1c7.2-2.8,9.4-10.2,4.7-15.8
		c1.4-2,3.5-1.2,5.3-1.3h-0.1c0.3,0.3,0.6,0.6,0.8,0.9c4.4,5.2,4,10.1-1.5,16.2c-5.5,2.9-5.7,4.8-1.3,8.7c1.2,1.1,2.5,2.5,2.8,3.9
		c1.1,5.1,5,7.9,8.2,11.3l-0.1-0.1c0.2,0.4,0.4,0.7,0.7,1.1c3,6.8,6.4,13.4,7.4,20.9c-1,3.7,1.1,6.3,3.1,9c0.9-1.3,0.7-2.9,0.7-4.4
		c0-2.5,1.5-3.4,3.7-3.9c10.1-2.6,20.3-3,30.5-2.3c4.7,0.3,10-0.2,14,3.5c-12.3,2.2-23,19.8-19.7,32.4c-0.3,1.3-1.2,2.6,0,4.3
		c2-3.5,2.6-7.5,5.1-10.5c0.9-0.4,1.3-1.1,1.3-2.1h-0.1c2.6-0.3,3.7-2.3,5.1-4.1C424.5,157.8,440,147.3,461.3,147.3z M441.2,204.4
		c-3.5-0.8-5.4,1.3-7.1,3.9c-1.7,2-3.8-1-5.1,0.1c-4.3,3.6-10.8,3.7-14.1,8.9c2.5,0.6,4.2-1.6,6.5-1.7c1.1,2.8,2.8,2.9,5.5,2
		c11.5-3.9,23.3-6.3,35.6-6.3c6.9,0,13.7,1.2,20.6,1.6c-5.9-4-12.6-5.3-19.6-5.6c-3.6-0.1-7.6,0.6-10.3-2.9c0.4-0.4,1.9-0.2,0.8-1.4
		c-1-1-2.1-0.3-3.2-0.2C447.5,203.2,444.3,203.8,441.2,204.4z M550.9,313.7c0-1.4,0.5-3.2-1.2-2.8c-3,0.9-3.6,4.1-4.7,6.5
		c-0.7,1.5,1.2,2.8,2.7,2.6C552.1,319.6,548.9,315.2,550.9,313.7z M556.4,323.4c-2-1-3-2-4.6-1.4c-0.2,0.1-0.4,1-0.3,1.2
		C552.6,324.8,553.9,324.4,556.4,323.4z M555.2,297c1.1-1.7,1.2-2.9-0.3-4.3C554,294.3,553.8,295.5,555.2,297z M537.7,277.2
		c-0.2-0.1-0.5-0.3-0.7-0.4l-0.3,0.3c0.1,0.2,0.3,0.5,0.4,0.7C537.3,277.6,537.5,277.4,537.7,277.2z"/>
	<path class="st4" d="M351.2,423.1c0-0.3-0.1-0.6-0.3-0.8c0.1-0.9,0-1.6-0.8-2.2c1-3.5-0.3-5.3-3.9-6.5c-6.4-2.1-12.2-5.6-18.2-8.6
		c0.2-2.1-1.2-2.8-2.8-3.6c-2.4-1.2-4.8-2.4-7-3.9c-10.3-6.8-17.1-17-24.8-26.2c-1.6-1.9-1.5-4-1.4-6.1c0.3-0.3,0.8-0.5,0.9-0.8
		c0.2-0.7-0.2-1.1-1-1.1l0.1,0.1c-0.8-1.1-1.1-2.9-3.1-2l0.1,0.1c0.7-2.3-1.5-2.9-2.5-4c-7.4-8.2-13.8-17-16.9-27.8
		c-1.2-4.3-1.4-8.8-1.8-13.3c1-8.6,1.9-17.2,6.1-25c2-0.2,2-1.6,1.8-3.2l-0.1,0.1c0.9,0.1,1.6-0.3,2.2-0.9
		c7.1-7.5,13.8-15.4,24.4-18.5c1.4-0.4,0.8-1.5-0.5-1.7c-0.8-1.3-3.3-0.9-2.6-3.7c1.7-6.8,2.6-13.8,5.8-20.2
		c1.8-0.3,0.7-3.5,3.2-3.1c1.3-0.8,3.1-1.9,2.6,1c-0.5,3.5,1.6,8.6-5.2,8.9c2,2.2,5.1-0.6,6,2.2c0.9,2.9-3.7,1-3.4,3.9
		c0.6,0,1.3,0.2,1.8,0c1.5-0.5,2.9-1.2,3.7,0.9c0.8,2.3-1.4,2.1-2.5,2.9c-0.5,0.4-1.1,0.7-1.7,1l0.2,0.2l-0.2-0.2
		c1.4,1.5,2.8,0.4,4-0.2c1.3-0.5,2.2-0.4,3,0.7c1,1.3,0.9,2.4-0.4,3.5c-0.6,0.5-1.4,1-0.9,2c4-1.6,4-1.6,8.2,1.6
		c1.2,0.9,2.3,1.8,3.5,2.7c-2.6,1.6-5.6-1.1-8.3,0.5c1.8,2,3.8,3.4,6.1,4.3c1.9,0.5,3.8,1.1,5.7,1.6c19.9,5.2,47.5,1.4,58-24.5
		c4.1-0.1,8.2,1.4,12.2-0.1c3.1,7.3,8.5,12.6,15.2,16.6c13.1,7.8,27.2,12.4,42.4,13.2c5.2,0.3,10.5,1.1,15.4-1.7
		c2.4-0.2,4.6-0.9,6.4-2.5c7.8-0.1,14.9-4.1,22.7-4.2c1.1,0.4,2.1,1.1,3.2,1.3c20.3,4,28.4,21.5,29.8,39.5c0.2,3.3-0.7,6.4-1.8,9.5
		c-3.8-1.6-3.5-6.1-6.2-8.5c-0.6-2.6,0.8-5.5-0.9-8c-0.4-0.4-0.7-0.8-1.1-1.1c-1.2-6.6-3.2-12.9-9-17.1l0.1,0.1
		c-3.6-4.1-8.2-6-13.6-6.1c-7.1-0.2-13.8,1.5-20.5,3.8c-12,4.1-24,8.4-35.9,12.6c-4.2,0-7.5,4-12,2.9c-12.5-0.6-25.1,0.8-37.6-0.2
		c-5.5,0.2-10.7-2.4-16.3-2.1c-3-3-7.2-2.2-10.7-3.4c-2.7,0.2-5.2-0.1-7.7-1.3c-15.7-5.5-31.2-11.6-47.1-16.3
		c-8.6-2.5-16.9,0.5-23.9,6.3c-6.6,4.5-10.5,10.8-12.4,18.4c-2.1,3.4-2,13.2,0.1,16.3c4,11.3,9.6,21.6,17.9,30.3
		c0.9,0.9,1.4,3.1,3.5,1.9l0,0c-1.4,1.4,0.2,1.9,0.8,2.5c14.5,13.6,31.8,21.9,50.6,27.6c0.7,0.2,1.6,0,2.5-0.1
		c4.6,0.3,8.7,3.6,13.7,2.3c0.5-0.1,1.4,1.2,2.1,1.8c11.8,3,24,3.5,36.1,3.7c18,0.2,35.7-2.6,53.2-6.6c-0.4,8.6-7.4,10-13.5,11.7
		c-16.9,4.5-34,4.8-51.4,3.5c-18.7-1.4-37.2-4.5-55.7-7.3c-2.8-0.4-5.6-1.9-8.6-0.6c0,1.5,1.2,2.1,1.9,2.9
		c7.8,8.3,17.8,13.2,28,17.8c3.4,1.6,7.5,1.6,10.3,4.4c-1.7-0.3-3.4-1.2-6,0.2c9.7,2.5,18.9,3.4,28,4.4c-1.3,2.7-1.5,5.5-0.1,8.2
		c-6.6-0.2-13.2-0.2-19.7-1.3c-6.8-1.1-13.6-2.1-20.4-3.2l0.1,0.1c0.1-0.9-0.5-1-1.2-1.1l0.1,0.1C351.8,424,351.5,423.6,351.2,423.1
		z"/>
	<path class="st5" d="M528.1,316.4c2.7,2.3,2.4,6.9,6.2,8.5c1.1,0.9,1.7,0.4,2-0.8c0.7-2.6,1.4-5.2,2.2-7.8c1.4-0.1,2.5,0.6,3.6,1.2
		c2.6,5,6.2,8.6,12.1,8.9c5.6,0.3,8.3-3.9,11-8c1.7-2.6,1.4-6.3,4.5-8.1c2,11.8,0.9,23.3-3.2,34.6c-9.2-4.8-18.2-5.2-26.7,1.4
		c-3.3,2.5-6.4,5.3-9.3,8.3c-24.4,25-54.4,40.1-87.4,50c-7.7,2.3-15.7,3.6-23.6,5.3c9.7,0.3,19.2,0.3,28.9-0.3
		c23.2-1.6,45.9-5.3,68-12.3c4.7-1.5,9-4.5,14.1-4.8c-2.1,1.4-4.1,2.7-6.2,4.1c-11.7,6.7-24.4,10.9-37.3,14.5
		c8.8-0.4,16.8-4.3,25.2-6.3c3.4,4.4,4.2,10.1,7.1,14.7c-0.8,0.6-1.6,1.3-2.3,1.9c-4.5,1-8.2,4.6-13.2,4.4c-1.2,0.1-2.3,0.3-3.5,0.4
		c-0.3-2.3,1.3-4,2-6.1c0.7-2.2,2-4.6,0.2-6.6s-4.4-1.1-6.6-0.7c-10.4,2-21,3-31.4,4.8c-9.4,1.6-19.3,2.2-26.4,10
		c-1.1,1.2-2.7,0.9-4.2,0.9c-2.7,0.4-3-1.8-4-3.5c-2.1-3.6,3.7-1.7,2.6-4.7c-20.3,0-40.8,0.7-61-3.2c-2.9-2.8-6.9-2.9-10.3-4.4
		c-10.2-4.6-20.2-9.5-28-17.8c-0.8-0.8-1.9-1.4-1.9-2.9c3-1.3,5.8,0.1,8.6,0.6c18.5,2.8,37,5.9,55.7,7.3c17.4,1.3,34.5,1,51.4-3.5
		c6.1-1.6,13.1-3,13.5-11.7c1.3-0.7,2.6-1.3,4-2c2.6-1,5.3-2.1,7.9-3.1c1.5,0.6,2.9,0,4.2-0.6c6.9-2.8,13.5-6.3,19.4-10.8
		c5.9-2.4,9.7-7.2,13.8-11.6c8.5-9.1,15.5-19,16.7-31.9c0.3-0.2,0.6-0.4,0.9-0.6C528.6,321.5,527.7,318.8,528.1,316.4z"/>
	<path class="st6" d="M494.4,477.6c-11.4,2.4-23,3.1-34.6,2.5c-13.5-0.7-27.1-1.6-39.6-7.7c-2.7-1.3-6.1-2-7-5.7
		c1,0.2,2,1.2,3.2,0.5l-0.2-0.1c5.9,6.3,14.2,5.8,21.7,7.4c-4.7-3.3-10.9-2.2-15.8-5.3c-3.1-3.7-2.3-7.2,0.2-10.9
		c2.6-3.9,6.5-6.6,9.7-9.8c2.1-0.1,4.2-0.3,6.2-0.4c-1.7-0.8-3.3-0.8-4.9-1c-3.7-0.4-4.5-1.9-1.9-4.8c0.9,0.2,1.8,0.2,1.3-1.1
		c-1.3-3.6-0.5-7.2-0.6-10.8c14.6,3,29.3,3.7,44.1,2c9.1-1,17.9-3.3,26.8-4.9c1.8,8.3,1.8,8.3-5.9,12.9c-0.5,0.3-0.8,1-1.1,1.5
		c-1.6,0.3-3.3,0.7-4.9,1c-0.4-0.4-0.7-0.3-1,0.1c-6.7,1.2-13.4,2.4-20.2,2.3c-6.7-0.1-13.5-0.1-20.2-0.3
		c19.3,2.6,38.4,0.7,57.4-2.8c1.4,2.3,4.7-0.1,6.4,2.8c-8.6,1.5-16.9,3-25.2,4.5c7.5,1.3,15-0.2,22.4,1.7c5.8,1.5,6.4,3,3.6,8.4
		c-1.8,3.4-5.5,5.3-6.9,9c-11.1,4.1-22.7,4.8-34.3,6c-7.3,0-14.5,0-21.8,0c0,0.5,0,0.9,0,1.4c7.3,0,14.5,0,21.8,0
		c8.6-1.1,17.2-2.1,25.9-3.2C498.9,475.9,495.1,475.3,494.4,477.6z"/>
	<path class="st7" d="M530.3,392.3c-5.1,0.3-9.4,3.3-14.1,4.8c-22.2,7.1-44.8,10.7-68,12.3c-9.6,0.7-19.2,0.7-28.9,0.3
		c7.9-1.7,15.9-3,23.6-5.3c33-9.8,63-25,87.4-50c2.9-3,6.1-5.7,9.3-8.3c8.5-6.6,17.5-6.2,26.7-1.4c-1,2.9-2,5.8-3,8.6l-0.1,0.3
		l-0.3,0.2l0.2,0.3c-6.8,12.1-14.4,23.6-25.1,32.8C535.6,389.1,533.3,391.2,530.3,392.3z"/>
	<path class="st6" d="M394.2,470.5c-18.2,3-36.2,2.8-54-2.3c-3-0.9-5.9-2.2-8.2-4.5c-1.2-1.2-3-2.4-0.9-4.3c3.1,2.6,5,2.4,6.6-1.9
		c1.7-4.7,5.4-8.1,9.2-11.3c1.3-1.1,3.2-1.9,3.5-3.9c0.5-0.5,1.5-1.5,1.4-1.5c-3.9-4,1.6-2.8,2.4-4.2c0.4-3.2-0.7-6.6,0.9-9.8
		c12.1,3.3,24.5,4.9,37.1,4.9c1.4,1.1,3.3,1.8,2.9,4.2c-0.4,2.4-2.3,2.9-4.1,3.8c-2,1-4.5,0-6.2,2.2c4.9-0.3,9.4,2.8,14.4,0.9
		c2.4,0,4.9-0.6,7.1,0.6c-7,1.9-14.5,0.7-21.6,3c2.9,1.1,5.9,1.5,8.7,2.3c2.6,0.7,4.9,2.3,5.6,5.1c0.6,2.9-1.9,3.9-3.8,5.2
		c-5.9,4-12.9,5.9-19.1,9.3c-4.3,0.6-8.8-0.6-13.7,0.9c1.6,1.2,2.7,1.2,3.9,1c6.6,0,13.2,0,19.8,0c1.1,0.3,2.2,0.4,3.1-0.5
		c1.6-0.1,3.3-0.2,4.9-0.3C394.1,469.8,394.1,470.1,394.2,470.5z M357.9,438c7.2,3.3,13,3.9,17.6,2.6
		C369.5,439.8,363.7,438.9,357.9,438z M378.3,440.3c-0.1,0.2-0.2,0.5-0.3,0.7c0.4,0.2,0.8,0.5,1.2,0.5c0.5,0.1,1.8,0.8,1.2-0.7
		C380.3,440.4,379,440.4,378.3,440.3z"/>
	<path class="st8" d="M494.4,477.6c0.8-2.3,4.5-1.7,4.6-4.7c6.5-1.7,13.1-3,19.1-6.4c-3.5,0.7-7.1,1.5-10.6,2.2
		c1.3-3.7,5.1-5.6,6.9-9c2.8-5.4,2.2-6.9-3.6-8.4c-7.4-1.9-14.9-0.3-22.4-1.7c8.3-1.5,16.6-3,25.2-4.5c-1.7-3-5-0.5-6.4-2.8
		c-3.6-2.8-7.4,1-11.1-0.3c0.4-0.5,0.6-1.2,1.1-1.5c7.7-4.6,7.7-4.6,5.9-12.9c0.2-0.6,0.3-1.3,0.5-1.9c5,0.3,8.6-3.4,13.2-4.4
		c0.6,2.6,3.1,3.3,4.9,4.6c6.3,4.6,6.3,4.5,1.5,10.2c-0.1,0.2,0,0.6,0,0.9c1.4,0.2,2.9,0.3,4.8,0.5c-1.3,1.7-2.3,2.9-3.4,4.4
		c6.8,1.7,11,5.9,14.3,11.4c0.1,0.3,0.1,0.6,0.1,0.9c-1.6,3.5-6,3.8-7.8,7.1c-1-0.2-1.7-0.1-2,1c-1.2-0.3-2.3-0.1-3,1
		c-0.4,0.1-0.9,0.2-1.3,0.3c0.1,0.2,0.3,0.3,0.4,0.5c0.3-0.3,0.6-0.5,0.9-0.8c1.1,0.1,2.3,0.2,3-1c0.8-0.1,1.6-0.1,2-1
		c1.2-0.4,2.5-0.9,3.7-1.3c0.8,0.4,1.6,0.8,2.4,1.2c-9.9,8.4-21.9,12-34.1,15C500.3,477,497.3,477.2,494.4,477.6z"/>
	<path class="st9" d="M612.1,296.4c-3-0.7-2.1-3.6-2.7-5.4c-2.9-8.4-8.5-14.9-14.9-20.5c-4.3-3.8-6.7-8.1-8.7-13.2
		c-4.7-12-14.2-20.2-24.3-27.5c-2.9-2.1-4.3-4.5-5.2-7.5c-7.3-23.6-22.5-41.1-42-55.6c-9.3-6.9-19.4-11.3-30.3-14.2
		c-1.2-1.5-2.9-1-4.5-1.1c0-3,0.6-4.5,4.4-3.4c35.1,10.1,59.1,32.9,75,65c2.2,4.5,4.8,9,5,14.3c0.1,1.7,1.9,2.2,3.1,2.9
		c12,7.2,21.7,16.3,25.5,30.4c0.5,2,2.3,3.2,3.7,4.6C604.5,274.1,611,283.9,612.1,296.4z"/>
	<path class="st4" d="M288.1,253.1c0.2-0.3,0.5-0.5,0.7-0.8c5.2-0.8,6.9-2.9,7.2-9.2c0.1-0.3,0.3-0.5,0.4-0.8
		c0.9-0.3,1.8-0.6,2.7-0.9c0.3,0,0.6,0,0.9,0.1c0.4,0.4,0.8,0.3,1.1-0.2l0,0c1.4,3.6,0.2,6.8-0.8,10.3c-1.5,5.5-3.9,10.9-3.2,16.9
		l0,0c-3.1-0.8-4.9,1.4-7,2.9c-1,1.2-3.2,0.4-3.9,2.1c-0.4,0.7-0.7,1.4-1.1,2l0.1-0.1c-2.7,1.7-6,3-6,7.1l0.1-0.1
		c-2.3-0.9-2.4,1.3-3.2,2.4c-5.3,7-7,15.4-9,23.7c-2-1.3-2.6-3.4-2.7-5.6c-0.4-8.9,0.7-17.4,5.7-25.2c1.2-1.9,2.7-3.8,2.1-6.4
		l-0.1,0.1c2.3,0.1,2.3-1.4,2.2-3v0.1c1.5,0,2.1-0.8,2-2.3c3.3-3.6,6.6-7.2,9.9-10.8C288.5,256.3,288.1,254.5,288.1,253.1z"/>
	<path class="st8" d="M592.1,341.4c-7.3,7.3-16.8,10.9-26,14.8c-1.2,0.5-1.8-0.3-1.8-1.6c1.1-0.9,1.4-2.2,2-3.4
		c5.3-12.1,6.9-24.8,5.9-37.9c-0.2-2.8,0-4.8,3.6-3.6c6.6,2.2,13.4,3.5,20.4,4c-1,1.7-1.9,3.4-3.1,5c-4.8,6.4-10.2,12.5-14.3,19.5
		c-1.7,2.8-1.5,4,2.1,4.1C584.7,342.6,588.3,340.6,592.1,341.4z"/>
	<path class="st6" d="M592.1,341.4c-3.8-0.8-7.4,1.2-11.3,1c-3.7-0.1-3.8-1.3-2.1-4.1c4.2-7,9.5-13,14.3-19.5c1.2-1.6,2.1-3.3,3.1-5
		c6.3-0.7,12.9,0.4,18.2-4.4c3.1,0.2,2.1,2.4,1.8,4c-0.9,5.4-4,9.7-7.4,13.7c-4.3,5.1-9.2,9.5-14.7,13.2
		C593.3,340.3,592.5,340.4,592.1,341.4L592.1,341.4z"/>
	<path class="st8" d="M376.1,468.3c6.2-3.5,13.2-5.3,19.1-9.3c1.9-1.3,4.4-2.3,3.8-5.2c-0.6-2.8-2.9-4.4-5.6-5.1
		c-2.9-0.8-5.8-1.2-8.7-2.3c7.1-2.3,14.5-1.1,21.6-3c1.6,0.1,3.3,0.2,4.9,0.3c1.4,0.8,2.9,1.6,4.3,2.4c0.8,0.5,2.1,0.9,2,2
		c-0.2,1.4-1.6,1.4-2.7,1.4c-2.8,0-5.5,0-8.8,0c3.7,2.2,7,4,10.2,5.9c-0.3,1.1-1.6,2-0.7,3.4v-0.2c-0.9-0.2-1.1,0.3-1.1,1.1l0.1-0.1
		c-1.4,0.1-1.1,1.2-1.1,2l0.1-0.1c-2.3,0.3-2.5,2.3-3.3,3.9c-2,0.7-4.2,0.5-5.9,2.1v-0.1c-2,0.3-4.3-0.8-6.1,1h0.1c-3,0-6,0.1-9,0.1
		C384.8,468.4,380.4,468.3,376.1,468.3z"/>
	<path class="st9" d="M308.3,240.2c-2.5-0.4-1.4,2.8-3.2,3.1c0.1-3.5-3.2-0.2-4-2l0,0c0.1-0.7-0.3-1.1-0.9-1.3
		c-6.1-9.7-5.7-13.2,2.7-21c3.5-3.2,7.8-5.7,11.2-9.1c2.9-2.9,1.6-7.5,3.5-11.3c7.5-15.3,18-27.8,32.1-37.2c1-0.7,4.1-4.6,4.2,1
		c-9.2,3.9-15.6,11.2-21.6,18.7c-3.4,4.2-5.9,9.2-8.5,14c-1,1.8-2.3,4.1-0.8,6c1.4,1.8,4.2,1.9,6.1,1.1c2.7-1.1,4.9,0.1,7.3,0.3
		c0,0.6,0.1,1.2,0.1,1.8c-12.3,1.8-21.9,8.7-30.8,16.6c-2.9,2.6-5.2,6-3.7,10.5c0.7,3.8,1.4,7.6,6.7,7.1
		C308.6,239.1,308.5,239.6,308.3,240.2z"/>
	<path class="st10" d="M538.9,453.4c-3.3-5.5-7.5-9.7-14.3-11.4c1.2-1.5,2.2-2.8,3.4-4.4c-2-0.2-3.4-0.4-4.8-0.5
		c0-0.4-0.1-0.8,0-0.9c4.8-5.7,4.7-5.6-1.5-10.2c-1.8-1.3-4.3-2-4.9-4.6c0.8-0.6,1.6-1.3,2.3-1.9c3.6,0.1,5.2-2.6,7.1-5
		c2.7-2.8,4.3-1.6,4.7,1.7c0.4,3.3,0.4,6.6,0.3,9.9c-0.1,3.2,1,5.3,3.8,6.8c2,1,3.7,2.7,5.5,4.1c2.5,1.8,3.6,4.7,4.9,7.3
		c2.1,4.2-3,4.3-4.2,6.7C540.6,451.8,539.6,452.5,538.9,453.4z"/>
	<path class="st11" d="M614.4,309.5c-5.3,4.7-12,3.7-18.2,4.4c-6.9-0.6-13.8-1.8-20.4-4c-3.7-1.2-3.8,0.8-3.6,3.6
		c1,13.1-0.6,25.8-5.9,37.9c-0.5,1.2-0.9,2.5-2,3.4c-0.3-0.4-0.6-0.7-1-1.1c1-2.9,2-5.8,3-8.6c4.1-11.3,5.2-22.8,3.2-34.6
		c-1.7-8.7-3.7-17.3-8.5-25c0.5-1.5-1.6-2.7-0.6-4.8c3.7,6.6,7,12.9,8.6,19.9c0.6,2.5,0.9,5.3,3.8,6.5c5.2,2.2,10.4,4.2,16.2,4.2
		c6.2,1.8,12.5,1.7,18.7,0.1c2.1-0.5,4.8-0.7,5.4-3.6C613.6,308.2,614,308.8,614.4,309.5z"/>
	<path class="st9" d="M461.3,147.3c-21.3,0-36.9,10.5-49.3,26.7c-1.4,1.8-2.5,3.8-5.1,4.1c2.3-6,7.2-10.2,10.3-15.7l0.1-0.1
		c1.1,0,1.6-0.9,2-1.7c0.7-0.6,2.1-0.8,1.1-2.3l-0.2,0.1c1.4,1,1.7,0,2-1.1l0.1,0.2c10.4-9.2,22.8-13,36.5-13.4
		C461.5,144.1,461.2,145.7,461.3,147.3z"/>
	<path class="st5" d="M400.6,186.5c-3.3-12.7,7.4-30.3,19.7-32.4c0.6,0.1,1.3,0.3,1.9,0.4c0.3,1.1-1.8,2.2,0.1,3.2l-0.1-0.2
		c-1.4-1.1-1.7,0-2,1.1l0.2-0.1c-0.4,0.3-0.8,0.6-1.3,0.8c-0.9,0.9-2.7,1.2-1.8,3.2l-0.1,0.1c-2.3-0.7-2.7,1.5-3.7,2.6
		C407.9,171.4,404.3,179,400.6,186.5z"/>
	<path class="st7" d="M526.2,414.4c-1.9,2.4-3.5,5.1-7.1,5c-2.9-4.6-3.8-10.3-7.1-14.7c4.1-2.1,8.1-4.2,12.2-6.3
		c4,2.8,1.8,7,2.4,10.6C526.9,410.7,526.3,412.6,526.2,414.4z"/>
	<path class="st12" d="M422.2,154.4c-0.6-0.1-1.3-0.3-1.9-0.4c-4-3.7-9.2-3.2-14-3.5c-10.2-0.7-20.5-0.2-30.5,2.3
		c-2.2,0.6-3.6,1.5-3.7,3.9c0,1.5,0.1,3-0.7,4.4c-2-2.7-4.1-5.3-3.1-9c0.5,1,1,1.9,1.6,3.3c0.7-2.5,2-3.7,4.3-4.3
		c15.8-4.1,31.8-4.4,47.9-1.7c1.3,0.2,3.6,0.2,3.8,1.6C426.2,153.5,423.3,153.2,422.2,154.4z"/>
	<path class="st12" d="M292.1,365.2c-0.1,2.2-0.2,4.3,1.4,6.1c7.8,9.2,14.6,19.4,24.8,26.2c2.2,1.5,4.6,2.7,7,3.9
		c1.6,0.8,3,1.5,2.8,3.6c-18-8.9-32.4-21.4-39.9-40.5c-0.3-0.7-3.2-3.4,1-3.1l-0.1-0.1c0.8,1.1,1.1,2.8,3.1,2l-0.1-0.1
		C291,364,292.2,364.6,292.1,365.2z"/>
	<path class="st4" d="M479,86.3c-2.4-0.1-4.3,0.9-4.7,3.3c-0.5,2.8-2.3,2.7-4.4,2.6c4.3-4.8,4.6-7.3,1.2-11l0.1,0.1
		c-0.7-1.9-2.6-1.9-4.2-2.3c-6.6-1.3-12.1,1.1-17,5.4c-0.3,0.3-0.6,0.6-0.9,0.9l0.1-0.1c-2.8,2.4-2.4,5.1-0.8,8
		c-4.2-1.9-0.9-6.6-3.3-9.1c7.5-8.4,22.1-10.3,30.1-4C477.2,81.7,478.5,83.8,479,86.3z"/>
	<path class="st12" d="M272,271.2c0.6,2.6-0.9,4.5-2.1,6.4c-5,7.7-6.1,16.3-5.7,25.2c0.1,2.2,0.8,4.2,2.7,5.6c0,2.1,0.6,4.2-0.8,6.1
		c-5.4-8.8-6.1-18.2-2.7-27.8C265.5,281,268.1,275.7,272,271.2z"/>
	<path class="st13" d="M350.3,442.2c-0.3,2.1-2.1,2.8-3.5,3.9c-3.8,3.2-7.5,6.6-9.2,11.3c-1.5,4.3-3.4,4.5-6.6,1.9
		c0-4.1,3.1-6.4,5.7-8.8C340.7,447,345,443.7,350.3,442.2z"/>
	<path class="st4" d="M322.1,106.3c-3.8,2.3-1,6.2-2.1,9.2c-4.4-2.7-3.7-7-2.3-10.5c2.3-5.9,6.2-10.8,12.1-13.7
		c0.9-0.1,1.8-0.2,2.3-1.2l-0.2,0.1c1.1,0.1,2.2,0.2,3.3,0.3c-3.4,3.7-8.3,5.5-11.1,9.9C322.8,102.1,322.5,104.3,322.1,106.3z"/>
	<path class="st12" d="M476.1,132.3c0.5-8.5-3.2-16.3-4.9-24.4c-0.5-2.4-1.3-4.7-2-7c3.1-1,3.2,1.8,3.7,3.4
		c3.3,9.9,5.3,20.1,5.6,30.6C475.8,135.8,477.8,132.4,476.1,132.3z"/>
	<path class="st12" d="M360.2,130.3c-3.2-3.4-7.1-6.3-8.2-11.3c-0.3-1.5-1.6-2.9-2.8-3.9c-4.4-3.9-4.1-5.8,1.3-8.7
		c-0.9,1.1-1.8,2.3-2.6,3.2C354,115.1,356.9,122.9,360.2,130.3z"/>
	<path class="st11" d="M524.1,398.4c-4.1,2.1-8.1,4.2-12.2,6.3c-8.4,2-16.3,5.9-25.2,6.3c12.9-3.6,25.6-7.8,37.3-14.5
		C524.1,397.1,524.1,397.8,524.1,398.4z"/>
	<path class="st11" d="M266.1,314.4c1.4-1.9,0.8-4,0.8-6.1c2-8.3,3.8-16.7,9-23.7c0.8-1,1-3.2,3.2-2.4c-1.1,2-2.2,4-3.3,6l0.1-0.1
		c-1.1,0.8-1.3,2-1.8,3.2c-4.2,7.8-5.1,16.4-6.1,25C267.4,315.7,266.8,315,266.1,314.4z"/>
	<path class="st4" d="M476.1,132.3c1.6,0.1-0.3,3.5,2.4,2.6c1.3,5.4-0.1,10.7-0.4,16c0,0.6,0.1,1.6,0.3,1.6c0.9,0.3,0.7-0.9,1.1-1.2
		c1.6,0.1,3.3-0.3,4.5,1.1c-7.9,2-7.9,2-7.9-6.7C476.1,141.3,476.1,136.8,476.1,132.3z"/>
	<path class="st5" d="M463.1,102.3c3.2,1,1.9,3.6,1.7,5.4c-0.5,3.9-1,7.8-2.8,11.4c-0.9-4-1.7-8-2.8-11.9c-1.1-3.9,3.3-2.1,3.9-4.1
		C463.1,102.9,463.1,102.6,463.1,102.3z"/>
	<path class="st4" d="M338.1,116.1c2.3-3.1,4.7-2.7,4.7,0.9c-0.1,4.2,1.9,8.1,1.1,12.3c-1.2-2.1-2.7-4.1-3.6-6.3
		c-0.8-1.9-4-3.8-0.4-6.1C340.2,116.8,340.1,116.6,338.1,116.1z"/>
	<path class="st13" d="M355,426.7c-1.6,3.1-0.5,6.5-0.9,9.8c-3.4-2.3-5.2-9.6-2.9-11.8c0.3-0.1,0.6-0.1,0.9-0.2l-0.1-0.1
		c-0.5,1.3,0.6,0.9,1.2,1.1l-0.1-0.1C353.7,425.8,354.4,426.2,355,426.7z"/>
	<path class="st12" d="M335.2,90.5c-1.1-0.1-2.2-0.2-3.3-0.3c6.3-3.2,12.6-5.6,19.3-0.9c-1.8,0.2-3.9-0.7-5.3,1.3
		c-0.5-0.1-1-0.3-1.4-0.4C341.3,88.6,338.3,88.9,335.2,90.5z"/>
	<path class="st4" d="M444.1,85.2c1.1,3.5-2.9,6.6-0.3,10.7c1.8,2.8,4.9,3.8,6.4,6.5C441.3,100.8,438.4,92.6,444.1,85.2z"/>
	<path class="st4" d="M319.9,115.5c3.6-1.6,6.1,2.6,9.7,1.7c2.4-0.6,4.9-1.8,7.5-0.8C331.3,118.2,325.4,122.3,319.9,115.5z"/>
	<path class="st12" d="M463,127.7c0.1-0.6,0.3-1.3,0.4-1.9c0.2,0,0.4,0,0.6,0c0,6.8,0,13.7,0,20.5c0,1.2-0.7,1.8-1.9,0.8
		C464.5,140.8,462.6,134.2,463,127.7z"/>
	<path class="st12" d="M296.1,243.1c-0.4,6.3-2.1,8.5-7.2,9.2C291.3,249.2,293.7,246.2,296.1,243.1z"/>
	<path class="st14" d="M394.2,470.5c-0.1-0.3-0.1-0.7-0.2-1c1.3-0.6,3,0.3,4.2-1.1h-0.1c2-0.3,4.3,0.5,6.1-1v0.1c1.5,0,2.9,0,4.4,0
		C403.9,469.8,399.2,470.7,394.2,470.5z"/>
	<path class="st4" d="M463.1,102.3c0,0.3,0,0.6,0,0.9c-4.1-0.2-8.2,0.7-12.2-0.5C455,102.2,459,99.8,463.1,102.3z"/>
	<path class="st11" d="M531.1,461.3c1.8-3.2,6.3-3.6,7.8-7.1c0.7,0.4,1.4,0.7,2.2,1.1c0,0.3,0,0.7,0,1l0,0c-2.5,0.5-4.4,2.1-6.3,3.7
		C533.6,460.5,532.4,460.9,531.1,461.3L531.1,461.3z"/>
	<path class="st14" d="M534.8,460c1.9-1.6,3.8-3.2,6.3-3.7c-0.1,2.6-2.3,3.5-3.9,4.9C536.5,460.9,535.6,460.5,534.8,460z"/>
	<path class="st11" d="M410,465.3c0.8-1.6,1.1-3.6,3.3-3.9c-0.4,1.2,0.2,2.1,0.7,3.1c-0.3,0.3-0.5,0.6-0.8,0.9
		C412.1,465.3,411.1,465.3,410,465.3z"/>
	<path class="st12" d="M274.1,268.2c0.1,1.6,0.1,3.1-2.2,3C272.7,270.2,273.4,269.2,274.1,268.2z"/>
	<path class="st12" d="M288.1,253.1c0,1.4,0.4,3.2-2.1,2.2C286.7,254.5,287.4,253.8,288.1,253.1z"/>
	<path class="st11" d="M416.4,467.2c-1.2,0.7-2.1-0.3-3.2-0.5c0-0.5-0.1-0.9-0.1-1.4c0.3-0.3,0.5-0.6,0.8-0.9
		C414.8,465.3,416.2,465.8,416.4,467.2z"/>
	<path class="st12" d="M276,266.1c0.1,1.4-0.5,2.3-2,2.3C274.5,267.3,275,266.5,276,266.1z"/>
	<path class="st12" d="M299.2,241.3c-0.9,0.3-1.8,0.6-2.7,0.9C297.2,241.5,297.3,238.9,299.2,241.3z"/>
	<path class="st8" d="M592.2,341.3c0.3-0.9,1.1-1,1.9-0.9C593.7,341.3,593,341.5,592.2,341.3z"/>
	<path class="st12" d="M332.1,90.1c-0.4,1-1.4,1.1-2.3,1.2C330.4,90.5,331.2,90.2,332.1,90.1z"/>
	<path class="st12" d="M469.1,100.2c-0.2-0.3-0.3-0.6-0.5-0.9c0.2,0.1,0.4,0.3,0.6,0.4C469.2,99.8,469.2,100,469.1,100.2z"/>
	<path class="st11" d="M350.2,420.2c0.7,0.6,0.9,1.3,0.8,2.2C350.3,421.7,350.1,421,350.2,420.2z"/>
	<path class="st11" d="M300.3,240c0.6,0.2,1,0.6,0.9,1.3c-0.3,0.5-0.6,0.5-1.1,0.2C300.2,240.9,300.2,240.4,300.3,240z"/>
	<path class="st14" d="M541.1,456.4c0-0.3,0-0.7,0-1c0.2,0.3,0.5,0.5,0.7,0.8C541.6,456.2,541.4,456.3,541.1,456.4z"/>
	<path class="st12" d="M352,90.2c-0.3-0.3-0.6-0.6-0.8-0.9C351.6,89.4,352.1,89.5,352,90.2z"/>
	<path class="st11" d="M352.1,424.5c-0.3,0.1-0.6,0.1-0.9,0.2c0-0.5,0-1,0-1.6C351.5,423.6,351.8,424,352.1,424.5z"/>
	<path class="st11" d="M563.1,354.3l-0.2-0.3l0.3-0.2C563.2,353.9,563.2,354.1,563.1,354.3z"/>
	<path class="st12" d="M360.8,131.3c-0.2-0.4-0.4-0.7-0.7-1.1C360.3,130.6,360.6,131,360.8,131.3z"/>
	<path class="st11" d="M308.3,240.2c0.1-0.6,0.3-1.2,0.4-1.7c0.7-0.1,1.3-0.3,1.5-1.1c1-0.4,1.9-0.8,2.9-1.2c1.1,0,2.1,0,3.2,0.1
		c-1.5,1.8-3.3,3.4-3.1,6.1c-0.9,4.6,0.2,8.9,2.2,13c8,16.2,35,25.4,51.6,17.7c9.3-3,14.5-10.2,18.8-18.3c1.7-3.2,1.5-5.6-1.6-7.6
		c0.7,0,1.3-0.1,2,0c5.7,1,6.6,0.2,6.3-5.6c-0.3-5.1-0.3-10.2-0.5-15.3c1.9,0,0.6,2.6,2.4,2.6c2.2-1.3,0.4-5.9,4.4-6
		c-2.2,3.9-3.6,8.1-4.7,12.3c-2.5,9.2-0.5,11.9,9,12.1c-0.3,1.2-1.2,2-0.5,3.6c2.1,5.2,4.7,9.8,9.3,13.2
		c14.5,10.8,31.3,11.8,48.3,11.5c11.2-0.2,21.7-2.8,30-11.1c0.7-0.1,1-0.4,1-1.1l0,0c5.2-4.6,8-10.2,7.7-17.2
		c14.9,1.3,21.4-6.3,16.7-19.4c5.4,6.1,4.4,13.8-2.4,18.1c-1.2,0.8-2.5,1.5-3.8,2.3c-1.3,0.1-2.6,0.4-3.9,0.4
		c-3.2,0.1-5,1.9-4.6,4.9c0.4,3.2,3.5,2.5,5.7,2.9c0.7,2.9-1.6,1.5-2.7,1.9c-2.1-1.3-4.7-2.4-5.5,1c-0.8,3.5,2.8,1.3,4.1,2.4
		c0.7,0.7,2.3,0.8,1.9,2.5c-2.7,0.4-5.3-2-8.2-0.5c0.6,2.2,3.9,1.8,4.1,4.3c-1.9,0.7-3-0.6-4.3-1.2c-1.2-0.5-2.4-0.9-3.1,0.4
		c-0.9,1.7,1,1.6,1.7,2.3c0.7,0.7,2.5,0.6,1.4,3.2c-4.8-4.8-8.5-1-12.7,1.2c-3,1.6-6.4,2.6-9.7,3.9c-9.6,2.4-19.4,1.2-29.1,1.8
		c9.6,2.6,19.5,2.3,29.3,2.7c-4.9,2.7-10.3,1.9-15.4,1.7c-15.2-0.8-29.3-5.4-42.4-13.2c-6.8-4-12.1-9.3-15.2-16.6
		c0.8-5.5-4-4.8-6.6-5.3c-3.2-0.6-5.6,1.5-5.6,5.3c-10.5,25.9-38.1,29.7-58,24.5c-1.9-0.5-3.8-1.1-5.7-1.6c1.3-1.8,3-0.8,4.5-0.5
		c4.4,0.9,8.7,2.1,14.1,1.3c-6.1-1.5-11.4-3.3-16.4-5.7c-1.2-0.9-2.3-1.9-3.5-2.7c-4.2-3.2-4.3-3.2-8.2-1.6c-0.5-1,0.3-1.5,0.9-2
		c1.3-1.1,1.3-2.2,0.4-3.5c-0.8-1.1-1.8-1.3-3-0.7c-1.3,0.6-2.6,1.6-4,0.2v0.1c0.6-0.3,1.2-0.6,1.7-1c1-0.8,3.3-0.7,2.5-2.9
		c-0.7-2.1-2.2-1.4-3.7-0.9c-0.6,0.2-1.2,0-1.8,0c-0.3-2.9,4.3-0.9,3.4-3.9c-0.9-2.9-4,0-6-2.2c6.8-0.3,4.7-5.3,5.2-8.9
		C311.4,238.3,309.6,239.4,308.3,240.2z"/>
	<path class="st5" d="M589.1,311.1c-5.8,0-11-2-16.2-4.2c-2.9-1.2-3.2-4-3.8-6.5c-1.7-7-4.9-13.3-8.6-19.9c-1,2.1,1.1,3.3,0.6,4.8
		c-5.7-1.6-8.7-6.9-13.3-10c-1.6-1.1-0.7-3.4-0.1-5.1c1.2-3.8,2.9-7.5,2.5-11.6c0.3-0.4,0.6-0.8,0.8-1.2c0-0.7,0.1-1.4,0.1-2
		c1.2-3.6,2.1-7.2,2-11l0,0c0.3,0,0.6,0,1-0.1c2.5,2.5,1.2,6.3,2.9,9.1c0.5,10.8,5.2,18.6,15.7,22.5c0.4,1,1,1.7,2.1,1.9
		c0.6,0.2,1.2,0.4,1.7,0.5c0.2-0.3,0.5-0.6,0.7-0.9c1.3,0.4,2.6,0.8,3.9,1.2c2,1.5,6.7,0.8,5.9,3.8c-0.7,2.4-5.1,1.3-7.6,0.5
		c-3.6-1.1-7-2.7-10.5-4.2c-1.1-0.5-2.4-2.2-3.4-1c-0.8,0.9-0.8,3-0.3,4.3c2.8,8.3,7,15.7,14.4,21
		C583.1,305.2,587.1,307.1,589.1,311.1z"/>
	<path class="st5" d="M392.1,226.3c0.2,5.1,0.2,10.2,0.5,15.3c0.3,5.8-0.6,6.6-6.3,5.6c-0.6-0.1-1.3,0-2,0
		c-3.1-2.5-6.7-4.3-10.2-6.1c-3.2-2.6-7-3.9-11-4.7c-0.4-0.1-0.7-0.1-1.1-0.2l0.1,0.1c-5-2.9-10.6-3-16.1-3.9
		c-5.9,0.1-11.8-1.4-17.5,0.9c-4,1.4-8.1,2.4-12.2,2.9c-1.1,0-2.1,0-3.2-0.1c3.4-5.4,9.3-5.7,14.6-6.8c18.4-3.7,35.8,1.2,52.8,7.6
		c5.4,2,7.9,0.3,7.6-5.5c-0.1-2.3-0.8-4.5-1.3-6.8c-0.3-1.3-1.3-2.9-0.1-3.7c1.7-1.1,2.4,1,3.5,1.9c0.5,0.4,0.8,1.1,1.1,1.6
		C391.6,225.2,391.9,225.8,392.1,226.3L392.1,226.3z"/>
	<path class="st4" d="M473.9,276.8c3.2-1.3,6.6-2.3,9.7-3.9c4.2-2.2,7.9-6,12.7-1.2c1.1-2.6-0.7-2.5-1.4-3.2
		c-0.7-0.7-2.6-0.6-1.7-2.3c0.7-1.3,1.9-0.8,3.1-0.4c1.3,0.5,2.4,1.9,4.3,1.2c-0.2-2.5-3.5-2.2-4.1-4.3c2.9-1.5,5.5,0.9,8.2,0.5
		c0.4-1.7-1.2-1.7-1.9-2.5c0.5-1.1,0.9-2.3,1.4-3.4c1.1-0.4,3.4,1,2.7-1.9c1.7-1.7,3.4-3.5,5.2-5.2c2.5,3.4,1.8,7.9-1.6,10.1
		c-1.1,0.7-2.3,1.4-3.1,2.4c-1.1,1.3-2.6,3-2,4.7c0.5,1.5,2.7,0.9,4.1,0.9c2.2,0,3.3,1.2,4.3,2.9c0.6,0.9,1.4,2.2,2.8,1.4
		c0.9-0.6,0.6-1.8,0.1-2.7c-0.6-0.9-2.1-2-0.6-2.9c2-1.2,1.6,1.6,2.4,1.9c3.2,1.2,4.3,2.8,2.4,6c-0.2,0.4,1,1.4,1.9,1.3
		c3.4-0.5,6.3,3.4,10,0.9c1-0.7,1.4,0.5,1.4,1.3c0,1.1,0.3,2.6-1.6,2.4c-1.5-0.2-2.2,0.2-2.4,1.7c-0.8,0-1.1,2.1-2.1,0.4
		c-1.3-2.1-3.6-2.7-5.6-3.6c-4.1-4.5-9.6-5.5-15.3-6c-8.8-0.8-17.1,2-25.4,4.3C479.1,276.6,476.2,280,473.9,276.8z"/>
	<path class="st15" d="M499.1,246.3c0.3,7-2.6,12.6-7.7,17.2c-0.8-2.5,1-4,2-5.9c3-5.8,2.6-8.6-2.6-12.3c-10.1-7.3-21.7-10.3-34-11
		c-9.4-0.5-18.3,2.3-27.6,3c-1.3-0.9-0.4-1.9-0.1-2.9c6-2.4,12.2-4.1,18.6-5c5.9,1.6,11.9,0.1,17.8,1.3c8.4,1.6,15.9,5.3,23.6,8.7
		l-0.1-0.1c0.3,1.3,1.2,1,2.1,0.9c1.8,0.7,3.5,1.5,5.3,2.2c-0.2,1.4-0.4,2.8,1.6,2.9C498.4,245.7,498.8,246,499.1,246.3L499.1,246.3
		z"/>
	<path class="st5" d="M403.3,247.4c-9.5-0.3-11.5-2.9-9-12.1c1.1-4.2,2.5-8.5,4.7-12.3c3.3,1.4,5.2-2.5,8.4-2.3
		c-1,3.5-4,5.5-5.2,8.5c-1,2.4-1.9,4.8-0.3,7.1c1.5,2.1,4,1.3,6,1.1c6.2-0.5,12.1-3.5,18.5-2.5c-2.9,2.4-8,1.4-9.7,5.9
		C411.8,242.1,408.6,246.8,403.3,247.4z"/>
	<path class="st9" d="M453.1,204.3c2.7,3.6,6.7,2.8,10.3,2.9c7,0.3,13.7,1.6,19.6,5.6c-6.9-0.4-13.7-1.6-20.6-1.6
		c-12.3-0.1-24,2.4-35.6,6.3c-2.7,0.9-4.5,0.8-5.5-2c7.2-3.1,14.4-5.8,22.3-6.4c3.9,0.3,8.1,1.1,8.5-4.8
		C452.5,204.3,452.8,204.3,453.1,204.3z"/>
	<path class="st5" d="M498,245.3c-2-0.2-1.8-1.6-1.6-2.9c2.5-0.8,5-1.6,7.5-2.4c4.4-1.3,7-4.1,7.3-8.9c0.2-2.6,1.1-4.9,4.5-4.3
		c4.8,13.2-1.7,20.7-16.6,19.4l0.1,0.1C499.2,245.6,498.7,245.3,498,245.3z"/>
	<path class="st12" d="M522.3,279.3c2.1,0.9,4.3,1.5,5.6,3.6c1,1.7,1.4-0.5,2.1-0.4c0.1,1.2,0.7,1.8,1.9,1.9c0,1.6,0.1,3.2,0.1,4.7
		c-1.6,1,0,1.5,0.3,2.2c3.9,7.6,6.2,15.5,3.7,24.1c-1.4-18-9.5-35.5-29.8-39.5c-1.1-0.2-2.1-0.9-3.2-1.3c2-0.4,3.9,0.1,5.9,0.3
		C513.9,275.2,517.7,278.5,522.3,279.3z"/>
	<path class="st9" d="M370.8,218c-1.2,1.6,0.4,2.3,1.2,3.2c1.1,1.3,2.8,2.3,2.7,5c-10-6.2-19.9-11.9-31.1-15.8c2.5-2,4.9-1.7,7-2.5
		l0.1,0.1c0,0.2,0,0.5-0.1,0.7c0.2-0.1,0.4-0.3,0.6-0.4c6.6,1,11.9,5.1,18,7.4C369,216.9,370.2,217.2,370.8,218z"/>
	<path class="st16" d="M468.1,92.9c-2.6,2-5.6,2.5-8.8,2.5c-2.6-0.2-4.9-0.8-6.3-3.3c4.1-5.7,10-5.2,16-4.8
		C471.6,89.6,467.8,91,468.1,92.9z"/>
	<path class="st7" d="M572.7,275.8c-10.5-3.8-15.1-11.7-15.7-22.5c0.9,0.3,4.1,4.6,5,6.8c0.8,1.8,1.7,3.5,2.4,5.4
		c0.7,1.9,2,2.4,3.8,1.7c0.3,0.3,0.7,0.7,1,1c1.4,2.2,2.9,4.5,4.3,6.7C573.2,275.2,572.9,275.5,572.7,275.8z"/>
	<path class="st9" d="M569.2,268.3c-0.3-0.3-0.7-0.7-1-1c0.1-3.4-3.5-6.2-1.4-10.5c3.6,5.7,8.7,9.4,13.7,13.3
		c3.1,2.4,0.8,4.2-0.4,6.2c-2-0.4-2.4-3.2-4.8-3.1l-0.1,0.1c-0.1-0.4-0.1-0.8-0.2-1.2c-0.3,0.1-0.6,0.2-0.8,0.2l0,0
		c1.2-1.5-0.6-1.7-1.1-2.5C572.4,267.7,570.6,268.6,569.2,268.3z"/>
	<path class="st11" d="M443.7,209.1c-7.9,0.6-15.2,3.3-22.3,6.4c-2.3,0.1-4,2.3-6.5,1.7c3.3-5.1,9.8-5.3,14.1-8.9
		c1.3-1.1,3.4,1.9,5.1-0.1c2.3,2.1,4.4-0.4,6.6-0.3C442.1,208,443.1,207.7,443.7,209.1z"/>
	<path class="st16" d="M341,107.7c-2.1,0.7-4.3,1.4-6.4,2c-0.2,0.2-0.4,0.4-0.6,0.7h0.1c-0.8-0.2-1.6-0.3-2.4-0.5
		c-0.2-1.5-0.4-3-0.7-4.5l0,0c1.2-0.2,1.5-0.9,1-2v0.1c0.9,0.2,1.5,0.1,1-1h-0.1c1.3,0.8,1.8-0.1,2.2-1.1c2.2-0.8,4.3-1.6,6.5-2.3
		c5.1,3,0.2,5-0.7,7.4l0.1-0.1c-0.4,0.2-0.8,0.3-1.2,0.5C340.3,107.1,340.7,107.4,341,107.7z"/>
	<path class="st11" d="M489.2,239.4c-7.7-3.3-15.2-7.1-23.6-8.7c-5.9-1.1-12,0.3-17.8-1.3c9.7-2.1,19.1-0.8,28.3,2.7
		C480.7,233.9,485.8,235.1,489.2,239.4z"/>
	<path class="st11" d="M416.6,240.6c1.7-4.4,6.7-3.4,9.7-5.9c0.9-0.1,1.8-0.2,2.7-0.3c-0.3,1-1.2,2,0.1,2.9
		c-3.3,7.8-4.2,8.1-11.6,3.1C417.4,240.3,417,240.5,416.6,240.6z"/>
	<path class="st11" d="M536.2,315.4c2.5-8.6,0.2-16.5-3.7-24.1c-0.3-0.6-2-1.2-0.3-2.2c1.9,0.9,2.3,3,3.4,4.4
		c0.2,0.3,0.4,0.5,0.6,0.8c0.4,2,0.8,3.9,1.9,5.6l-0.1,0.2l0.2,0.2c0.3,5.3,1.5,10.6,0.5,15.9c-0.7,2.6-1.5,5.2-2.2,7.8
		c-0.3,1.2-0.9,1.7-2,0.8C535.5,321.8,536.4,318.7,536.2,315.4z"/>
	<path class="st5" d="M512.1,250.2c-1.7,1.7-3.4,3.5-5.2,5.2c-2.2-0.4-5.3,0.3-5.7-2.9c-0.4-3.1,1.4-4.8,4.6-4.9
		c1.3,0,2.6-0.3,3.9-0.4C511.4,247.4,512.3,248.3,512.1,250.2z"/>
	<path class="st12" d="M443.7,209.1c-0.6-1.4-1.5-1.2-2.9-1.2c-2.2,0-4.4,2.4-6.6,0.3c1.6-2.6,3.6-4.7,7.1-3.9c3.7,2.9,7.3-0.9,11,0
		C451.8,210.3,447.6,209.4,443.7,209.1z"/>
	<path class="st4" d="M538.5,316.2c1.1-5.3-0.1-10.6-0.5-15.9c4.3,0.4,7.5,4.6,5.5,8c-1.8,3.1-1.1,6.1-1.5,9.1
		C540.9,316.8,539.9,316.1,538.5,316.2z"/>
	<path class="st11" d="M369.2,215.6c-6.1-2.3-11.4-6.4-18-7.4l-0.2-0.3h-0.3l-0.1-0.1c-4.4-2-9.1-3-14-3.6c0-0.6-0.1-1.2-0.1-1.8
		c3.4,0.7,6.8,1.3,10.1,2c2,1.1,4.2,2,6.5,1.9l-0.1-0.1c1.3,1.6,3.5,1.6,5.1,2.5C361.9,210.9,366.5,211.7,369.2,215.6z"/>
	<path class="st11" d="M400.6,186.5c3.7-7.5,7.4-15,12.9-21.4c1-1.1,1.4-3.3,3.7-2.6c-3.1,5.5-8,9.7-10.3,15.7h0.1
		c-0.4,0.7-0.9,1.4-1.3,2.1c-2.5,3-3.1,7-5.1,10.5C399.4,189.1,400.2,187.8,400.6,186.5z"/>
	<path class="st12" d="M369.2,215.6c-2.7-3.9-7.3-4.7-11-6.8c-1.7-0.9-3.8-0.9-5.1-2.5c1.7-1.1,3,0.2,4.4,0.7
		c5.6,1.9,10.8,4.6,15.8,7.7c0.5,0.3,1.3,1.3,1.6-0.1c0.1-0.3-0.5-0.8-0.8-1.2c1.4,0.2,2.3,1.1,1.7,2.3c-0.9,2.1-3,2.1-5,2.2
		C370.2,217.2,369,216.9,369.2,215.6z"/>
	<path class="st11" d="M374.1,213.4c0.3,0.4,0.8,0.9,0.8,1.2c-0.3,1.4-1.1,0.5-1.6,0.1c-5-3.2-10.2-5.8-15.8-7.7
		c-1.4-0.5-2.8-1.8-4.4-0.7l0.1,0.1c1.2-0.6,0-1.3,0.1-1.9C361,205.6,367.6,209.2,374.1,213.4z"/>
	<path class="st4" d="M535.5,293.5c-1.1-1.5-1.5-3.5-3.4-4.4c0-1.6-0.1-3.2-0.1-4.7c0.5,0.2,1,0.2,1.4,0.6c1.4,1.2,4-1.7,4.6,1.2
		C538.5,288.8,538.5,291.8,535.5,293.5z"/>
	<path class="st4" d="M550.9,313.7c-2.1,1.5,1.2,5.9-3.2,6.4c-1.5,0.2-3.4-1.1-2.7-2.6c1.1-2.4,1.7-5.7,4.7-6.5
		C551.4,310.5,550.9,312.4,550.9,313.7z"/>
	<path class="st11" d="M331.8,109.8c0.8,0.2,1.6,0.3,2.4,0.5c-7.2,3.2-9.7,2.3-12.1-4c0.5-2.1,0.7-4.2,2.1-6c1.8,1.3-0.2,2.6,0,4
		c0.3,2.2-0.4,4.9,2.5,5.8c3.7,1.2,2-3,3.6-3.9C330.3,107.6,329.6,109.4,331.8,109.8z"/>
	<path class="st11" d="M341.1,106.4c0.9-2.4,5.8-4.4,0.7-7.4c1.6-0.3,3.5,2,4.8-0.3c1.1-2,0.6-4-1.3-5.7c-0.7-0.6-2.1-1.3-1-2.8
		c0.5,0.1,1,0.3,1.4,0.4C350.6,96.2,348.3,103.6,341.1,106.4z"/>
	<path class="st11" d="M453,92.1c1.4,2.5,3.7,3.1,6.3,3.3c-4.2,1.9-7.5-0.2-10.9-2.2c-1.6-2.8-2-5.5,0.8-8c0,1.8-0.2,3.6,0,5.3
		C449.4,93.3,450.8,93.8,453,92.1z"/>
	<path class="st4" d="M310.3,237.4c-0.2,0.8-0.8,1-1.5,1.1c-5.3,0.5-6-3.3-6.7-7.1C305.7,232.1,306.3,237.1,310.3,237.4z"/>
	<path class="st11" d="M452.1,204.4c-3.7-0.9-7.3,2.9-11,0c3.2-0.6,6.4-1.2,9.6-1.7c1.1-0.2,2.2-0.9,3.2,0.2c1.1,1.2-0.3,1-0.8,1.4
		C452.8,204.3,452.5,204.3,452.1,204.4z"/>
	<path class="st4" d="M553.1,244.3c0.1,3.8-0.7,7.4-2,11C549.2,251.2,549.7,247.5,553.1,244.3z"/>
	<path class="st11" d="M468.1,92.9c-0.3-1.9,3.4-3.3,0.8-5.6c6-0.2,1.8-3.9,2.2-6.1c3.4,3.7,3.2,6.2-1.2,11
		C469.3,92.5,468.7,92.7,468.1,92.9z"/>
	<path class="st7" d="M575.3,273.2c2.3-0.1,2.8,2.7,4.8,3.1c0.4,0.7,0.7,1.5,1.1,2.2c-1.3-0.4-2.6-0.8-3.9-1.2c-0.4,0-0.8,0-1.2,0
		l0.1,0.1c0.4-1.1,0.1-1.8-1-2.1l0.1,0.1C575.2,274.6,575.3,273.9,575.3,273.2z"/>
	<path class="st4" d="M556.4,323.4c-2.5,1-3.8,1.4-4.9-0.2c-0.2-0.3,0-1.1,0.3-1.2C553.4,321.4,554.4,322.4,556.4,323.4z"/>
	<path class="st4" d="M555.2,297c-1.5-1.4-1.3-2.7-0.3-4.3C556.4,294.1,556.4,295.3,555.2,297z"/>
	<path class="st12" d="M353.2,204.4c-0.1,0.6,1.1,1.3-0.1,1.9c-2.4,0.1-4.5-0.8-6.5-1.9C348.8,204.5,351,204.4,353.2,204.4z"/>
	<path class="st4" d="M538,299.9c-1.1-1.7-1.5-3.6-1.9-5.6C539.3,295.3,537.7,297.9,538,299.9z"/>
	<path class="st4" d="M537.7,277.2c-0.2,0.2-0.4,0.4-0.6,0.6c-0.2-0.2-0.3-0.4-0.4-0.7c0-0.1,0.2-0.3,0.3-0.3
		C537.2,276.9,537.4,277.1,537.7,277.2z"/>
	<path class="st11" d="M491.1,240.2c-0.9,0.1-1.8,0.4-2.1-0.9C490.3,238.3,490.7,239.4,491.1,240.2z"/>
	<path class="st11" d="M392.1,226.4c-0.3-0.6-0.5-1.2-0.8-1.8C391.6,225.2,391.9,225.8,392.1,226.4z"/>
	<path class="st9" d="M405.7,180.3c0.4-0.7,0.9-1.4,1.3-2.1C407,179.1,406.6,179.9,405.7,180.3z"/>
	<path class="st4" d="M551,257.4c-0.3,0.4-0.6,0.8-0.8,1.2C550.5,258.1,550.8,257.8,551,257.4z"/>
	<path class="st11" d="M341,107.7c-0.3-0.3-0.7-0.6-1-0.9c0.4-0.2,0.8-0.3,1.2-0.5C341.6,106.8,341.5,107.3,341,107.7z"/>
	<path class="st4" d="M554.1,244.3c-0.3,0-0.6,0-1,0.1C553.4,243.9,553.7,243.8,554.1,244.3z"/>
	<path class="st11" d="M334.1,110.4c0.2-0.2,0.4-0.4,0.6-0.7C334.4,109.9,334.2,110.1,334.1,110.4z"/>
	<path class="st13" d="M472,379.4c-2.6,1-5.3,2.1-7.9,3.1c-1.5-0.5-2.9-0.2-4.4,0.2c-28.4,6.9-57,8.7-85.9,4c-1.1-0.2-2.3-0.8-3,0.8
		c-0.7-0.6-1.6-1.9-2.1-1.8c-5,1.3-9.1-2-13.7-2.3c-0.1-1.1-1.1-1-1.9-1.2c-19.4-5.9-36.8-15.3-52-28.8l0,0
		c-0.4-1.7-2.8-2.6-1.8-4.8c4.6-10.9,8.8-22.1,17.6-30.6c1.1-1,2.1-2.4,3.5-0.4c0.3,0.9,0.6,1.9,0.9,2.8c-1.6,0.8-0.7,1.9-0.4,3
		c2.6,10.5,1.9,21.3,3.1,31.9c-1.4,2.2-3.9,3.9-3.6,7.3c10.8-7.4,11.6-8,15.7-6.9c6,1.5,11.8,3.7,17,7.3c-3.8,4.5-3.8,4.5-3.1,8.5
		c2.9-5.9,7.2-8.4,13.1-7.8c6.4,0.7,12.8,1.6,19,3.7c3,1,4.7,2.2,2.6,5.5c-0.9,1.4-1.3,3.2,0.9,6.1c0.6-7.5,4.4-11.1,10.2-11.2
		c10.7-0.2,22-2.8,30.9,6.8c-0.2-4.8,0-5.2,4-6.9c5.2-2.2,10.7-3.6,16.3-4.3c7.9-1,16.1-3.6,22.7,5.8c0-4.2-1.6-6.1-3.7-7.2
		c-1.8-1-2.3-2.2-1.9-4c2.6-11.6,4.3-23.4,8.9-34.5c7-0.3,8.6,5.5,10.8,10c5.6,11.4,7,23.7,6.4,36.2
		C484.9,374.2,478,375.9,472,379.4z"/>
	<path class="st13" d="M435.3,303.3c4.5,1.1,7.8-2.9,12-2.9c2,0.6,3.9,0,5.8-0.6c5.8-2,11.6-3.9,17.4-5.8c1.2-0.4,2.4-1.2,3.3,0.7
		c2,4.6-0.4,11.9-5.2,14.3c-2.5,1.2-5.2,2.3-7.9,2.8c-8.2,1.5-16.4,2.9-24.1-1.9C436.1,307.7,435,305.7,435.3,303.3z"/>
	<path class="st15" d="M363.1,296.2c2.4,1.2,5,1.6,7.7,1.3c2.8,3.6,7.1,2.3,10.7,3.4c5.5-0.3,10.7,2.3,16.3,2.1
		c3.8,2.5,8.2,1.4,12.3,2.2c1.1,0.2,3.6-0.9,2.2,2.1c-8.1-0.4-16.3-0.2-24.4-1.3c-22.2-3-43.5-9.2-63.8-18.7
		c-4.5-2.1-8.2-2.3-11.2,2.3c-0.8,1.2-1.8,2-3.3,1.8c-3-2.3-3.3-5.2-1.9-8.4c1.4-3.2,4.2-1.7,6.5-1.7c3.7-0.1,7.1,1.2,10.5,2.5
		c7.1,2.6,14,5.7,21.2,8.1C351.6,293.7,357,296.4,363.1,296.2z"/>
	<path class="st11" d="M363.1,296.2c-6.1,0.2-11.5-2.5-17.1-4.4c-7.2-2.4-14.1-5.4-21.2-8.1c-3.4-1.3-6.8-2.6-10.5-2.5
		c-2.3,0-5.1-1.5-6.5,1.7s-1.1,6.1,1.9,8.4c1.4,2.1,3.5,3.5,5.5,5c3.1,2.3,6.6,3.7,10.4,4.6c3.9,0.9,7.3,0.3,9.8-4.2
		c0.3,3-0.2,5.2,1.8,6.9c8.8,7.6,19.5,10.6,30.4,9.8c4.4-0.3,6.9-0.6,11.3,1.3c10,4.3,20.9,4.5,31.2-0.6l0.2,0.2
		c0.3,2.9-2,3.4-3.8,3.7c-8.2,1.2-16.4,2.4-24.6-0.2c-5.8-1.9-11.9-2.9-18.1-2.4c-10.4,0.9-19-3.3-26.8-9.6
		c-2.3-1.8-4.5-2.7-7.2-2.6c-5.2,0.3-9.9-1.5-14.1-4.1c-5.3-3.3-11.6-6.1-11.5-14.2c0-2.3-2.3-2.7-4.6-1.8c-2.4,1-4.2,3.4-7.2,3.2
		l-0.1-0.1c7-5.9,15.4-8.9,23.9-6.3C331.9,284.6,347.4,290.7,363.1,296.2z"/>
	<path class="st11" d="M415.3,458.7c-0.9-1.4,0.5-2.3,0.7-3.4c1.2-1.1,2.4-2.3,3.7-3.2c6.4-4.6,9.8-9.5,6.8-18.4
		c-1.6-4.9-3.4-5.6-7.4-5.2c-0.1-0.2-0.2-0.4-0.4-0.5c1.5-0.9,3.3-0.3,4.9-0.8s4.1-0.4,3.7-3c-0.3-2.1-2.3-2-4-2
		c-5.5,0.1-11,0.2-16.4,0.3c-4.6-0.3-9.2-0.6-13.8-0.9c-9.1-1-18.2-1.9-28-4.4c2.7-1.4,4.3-0.5,6-0.2c20.2,4,40.7,3.2,61,3.2
		c1.1,3-4.7,1.1-2.6,4.7c1,1.7,1.2,3.9,4,3.5c0.6,0.3,1.1,0.7,1.7,0.9c13.1,3.1,26.3,2.4,39.5,1.5c8.6-0.6,17.1-1.8,25.3-4.7
		c1.2-0.1,2.3-0.3,3.5-0.4c-0.2,0.6-0.3,1.3-0.5,1.9c-8.9,1.7-17.7,3.9-26.8,4.9c-14.8,1.6-29.5,0.9-44.1-2
		c-1.3-0.6-2.1-2.1-3.6-1.8c-1.4,5.1,1.7,9.2,2.9,13.8c-2.6,2.9-1.7,4.5,1.9,4.8c1.6,0.2,3.3,0.2,4.9,1c-2.1,0.1-4.2,0.3-6.2,0.4
		c-3.6-0.5-6.3,1.4-8.9,3.4C420.4,454.1,418.5,457.1,415.3,458.7z"/>
	<path class="st11" d="M436.6,309.9c7.7,4.8,15.9,3.4,24.1,1.9c2.7-0.5,5.4-1.6,7.9-2.8c4.8-2.4,7.2-9.7,5.2-14.3
		c-0.8-1.9-2-1.1-3.3-0.7c-5.8,1.9-11.6,3.9-17.4,5.8c-1.9,0.6-3.8,1.2-5.8,0.6c12-4.2,23.9-8.5,35.9-12.6c6.6-2.3,13.4-4,20.5-3.8
		c5.4,0.2,10,2,13.5,6.1c-0.5,1.4-1.3,0.7-1.8,0.2c-6.4-5.4-13.8-5.7-21.5-4.1c-1.6,0.4-3.6,0.4-2.4,3c2.2,9.4,3.2,10.2,12.6,9.8
		c1.5,0,3-0.3,4.4-0.5c9.9-1.8,9.9-1.8,8.7-8.6c5.8,4.2,7.8,10.5,9,17.1l-0.1,0.1c-2-0.4-1.8-2.1-2.2-3.5c-1.9-6.1-3.4-6.8-9.4-4.6
		c-3.7,1.4-7.7,1.8-11.7,2c-8.3,0.3-10.1-1.1-12.7-9.2c-0.7-2.2-2.3-2.6-4.2-2.8c-6.7-0.6-10.4,2.5-9.6,9.1
		c0.8,6.7-2.8,10.2-7.7,13.2c-7.4,4.5-15.5,4.4-23.7,3.1c-3.3-0.5-7.2-0.3-8.8-4.3C436.2,310.2,436.4,310.1,436.6,309.9z"/>
	<path class="st11" d="M320.5,317.5c-1.4-2-2.5-0.7-3.5,0.4c-8.8,8.5-13,19.6-17.6,30.6c-0.9,2.2,1.4,3.1,1.8,4.8
		c-2.1,1.2-2.7-1-3.5-1.9c-8.3-8.7-13.9-19.1-17.9-30.3c-0.3-1.6-1-3.2,0.5-4.6c3.2,2.8,1.2,7.4,3.7,10.6c4,5.1,4.9,12.1,10,16.5
		c2.5,2.2,4,1.8,5.1-1.2c1.8-5.2,5-9.6,7.4-14.5c2.3-4.8,5.9-9.1,10.3-12.6c1.7-1.4,3.6-2.3,4.4,1
		C321,316.7,320.8,317.1,320.5,317.5z"/>
	<path class="st11" d="M370.9,387.4c0.7-1.5,1.9-0.9,3-0.8c28.9,4.7,57.5,2.9,85.9-4c1.5-0.4,2.9-0.7,4.4-0.2c-1.3,0.7-2.6,1.3-4,2
		c-17.5,4-35.2,6.9-53.2,6.6C394.9,390.9,382.7,390.4,370.9,387.4z"/>
	<path class="st11" d="M301.2,353.3c15.2,13.4,32.6,22.8,52,28.8c0.7,0.2,1.7,0.1,1.9,1.2c-0.8,0-1.7,0.3-2.5,0.1
		c-18.8-5.6-36.1-14-50.6-27.6C301.4,355.2,299.8,354.6,301.2,353.3z"/>
	<path class="st5" d="M393.2,421.6c4.6,0.3,9.2,0.6,13.8,0.9c0.4,0.9,0.8,1.7,1.1,2.6c0,2.7-1.7,3.2-4,3.2c-2.1,0.1-4.3-0.8-6,1.2
		c-1.6,0.8-3.3,0.7-5,0.3C391.7,427.1,391.9,424.3,393.2,421.6z"/>
	<path class="st11" d="M393.1,429.8c1.7,0.4,3.4,0.5,5-0.3c3.9-0.2,7.8-0.4,11.7-0.6c3-0.3,6-0.7,9-1c0.1,0.2,0.2,0.4,0.4,0.5
		c-1.3,1.6-3.6,0.2-5,1.7c-7.4,0.5-14.7,1-22.1,1.4c-12.6,0-25-1.6-37.1-4.9c-0.7-0.5-1.3-0.9-2-1.4c6.8,1.1,13.6,2.1,20.4,3.2
		C379.9,429.6,386.5,429.6,393.1,429.8z"/>
	<path class="st12" d="M473.9,276.8c2.3,3.2,5.2-0.2,7.7,0.8c-0.4,0.4-0.8,0.8-1.1,1.2c-1.8,1.7-4,2.3-6.4,2.5
		c-9.8-0.5-19.7-0.2-29.3-2.7C454.5,278,464.3,279.2,473.9,276.8z"/>
	<path class="st12" d="M276,288.3c1.1-2,2.2-4,3.3-6l-0.1,0.1c2.1-2.3,5.2-3.7,6-7.1l-0.1,0.1c1.5,0.9,2.4-0.6,2.6-1.3
		c0.3-1.2-0.9-0.6-1.5-0.7c0.8-1.7,2.9-0.9,3.9-2.1c2.9,0.3,5.1-1,7-2.9l0,0c1.8,0.4,3.1-1.1,4.8-1.2c1.4,0.2,1.9,1.3,0.5,1.7
		c-10.5,3-17.3,11-24.4,18.5C277.5,288,276.8,288.3,276,288.3z"/>
	<path class="st11" d="M412.3,307.4c1.4-3-1.1-1.8-2.2-2.1c-4.1-0.8-8.5,0.3-12.3-2.2c12.5,1,25.1-0.3,37.6,0.2
		c-0.3,2.4,0.9,4.4,1.3,6.6c-0.2,0.1-0.3,0.3-0.5,0.5c-0.4-0.2-1.3-0.4-1.3-0.6c-0.1-6.3-4.5-5.6-8.6-5.5c-2,0.1-4,0.2-6,0
		c-3.8-0.3-6.1,0.9-6,5.2c0,2.6-1.1,4.5-4,4.8l-0.2-0.2C411.6,312.2,412.6,310,412.3,307.4z"/>
	<path class="st11" d="M480.5,278.8c0.4-0.4,0.8-0.8,1.1-1.2c8.3-2.3,16.6-5.1,25.4-4.3c5.7,0.5,11.2,1.5,15.3,6
		c-4.6-0.8-8.4-4.1-13.2-4.4c-2-0.1-3.9-0.7-5.9-0.3C495.4,274.7,488.3,278.7,480.5,278.8z"/>
	<path class="st5" d="M327.3,271.3c5,2.4,10.3,4.1,16.4,5.7c-5.3,0.8-9.7-0.5-14.1-1.3c-1.5-0.3-3.2-1.3-4.5,0.5
		c-2.3-0.9-4.3-2.3-6.1-4.3C321.7,270.2,324.7,272.9,327.3,271.3z"/>
	<path class="st11" d="M302,267.2c-1.7,0.1-3,1.6-4.8,1.2c-0.6-5.9,1.7-11.4,3.2-16.9c1-3.5,2.2-6.7,0.8-10.3c0.7,1.8,4.1-1.5,4,2
		c-3.2,6.4-4.1,13.4-5.8,20.2C298.6,266.3,301.2,265.9,302,267.2z"/>
	<path class="st5" d="M388.9,253.3c0-3.8,2.4-5.9,5.6-5.3c2.6,0.5,7.5-0.2,6.6,5.3C397,254.7,392.9,253.1,388.9,253.3z"/>
	<path class="st11" d="M279.6,304.7c1.8-7.7,5.8-13.9,12.4-18.4l0.1,0.1c-0.8,5-5.9,7-7.9,11.5c-1.1,2.5-1,6.3-4.5,7.6
		C279.7,305.2,279.7,304.9,279.6,304.7z"/>
	<path class="st15" d="M279.6,304.7c0.1,0.2,0.1,0.5,0.1,0.7c0.2,3.7,0.4,7.3,0.6,11c-1.5,1.4-0.9,3-0.5,4.6
		C277.6,317.9,277.5,308.1,279.6,304.7z"/>
	<path class="st11" d="M381.4,301c-3.6-1.1-7.9,0.1-10.7-3.4C374.3,298.8,378.5,298,381.4,301z"/>
	<path class="st2" d="M527.1,323.8c-0.3,0.2-0.6,0.4-0.9,0.6c0-1,0-2.1-0.1-3.1c0-4.6,0-9.3,0-13.9l0.1-0.1c0.4,0.4,0.7,0.8,1.1,1.1
		C527.2,313.5,527.1,318.7,527.1,323.8z"/>
	<path class="st15" d="M527.1,323.8c0-5.1,0.1-10.2,0.1-15.3c1.7,2.5,0.4,5.3,0.9,8C527.7,318.8,528.6,321.5,527.1,323.8z"/>
	<path class="st12" d="M274.2,291.3c0.5-1.1,0.7-2.4,1.8-3.2C276.3,289.7,276.2,291.1,274.2,291.3z"/>
	<path class="st2" d="M292.2,363.4c-2,0.7-2.3-0.9-3.1-2C291.1,360.5,291.4,362.3,292.2,363.4z"/>
	<path class="st2" d="M292.1,365.2c0-0.6-1.2-1.2-0.1-1.9c0.8,0,1.1,0.5,1,1.1C293,364.8,292.5,365,292.1,365.2z"/>
	<path class="st11" d="M309.7,261l0.2,0.2L309.7,261z"/>
	<path class="st11" d="M353.1,425.4c-0.6-0.1-1.7,0.3-1.2-1.1C352.7,424.4,353.3,424.5,353.1,425.4z"/>
	<path class="st11" d="M526.1,321.3c0,1,0,2.1,0.1,3.1c-1.2,12.9-8.1,22.9-16.7,31.9c-4.1,4.4-7.9,9.3-13.8,11.6
		c-0.3-0.3-0.5-0.6-0.8-0.9c0.7-0.7,1.4-1.4,2.1-2.1c6.7-5.7,6.8-5.7,3.1-14c-5.2-11.4-11.1-22.3-21.9-29.7c-2.9-2-4.7-2.1-5.1,2
		c-4.6,11.1-6.3,22.9-8.9,34.5c-0.4,1.8,0.1,3,1.9,4c2.1,1.2,3.7,3,3.7,7.2c-6.6-9.4-14.8-6.8-22.7-5.8c-5.6,0.7-11,2.1-16.3,4.3
		c-4.1,1.7-4.2,2.1-4,6.9c-8.9-9.6-20.3-7-30.9-6.8c-5.9,0.1-9.6,3.8-10.2,11.2c-2.2-3-1.8-4.7-0.9-6.1c2.1-3.3,0.4-4.5-2.6-5.5
		c-6.2-2.2-12.6-3-19-3.7c-5.9-0.6-10.2,1.9-13.1,7.8c-0.6-4-0.6-4,3.1-8.5c-5.2-3.6-11-5.8-17-7.3c-4.1-1-4.9-0.5-15.7,6.9
		c-0.3-3.4,2.2-5.1,3.6-7.3c1.8-0.8,3.5-1.8,5.5-2c1.4-0.1,2.5-0.6,1.7-2.5c-3.8-9.9-5.3-20.6-9.9-30.3c-0.3-0.9-0.6-1.9-0.9-2.8
		c0.2-0.4,0.5-0.8,0.7-1.2c1.6,2.6,4.2,4.6,4.9,7.9c1.7,8.4,5.2,16.3,6.4,24.8c0.3,2,2.2,3.5,4.3,3.6c4.7,0.3,8.5,2.8,12.6,4.6
		c5.4,2.4,10.5,4.2,16.5,4.4c4.6,0.1,9.4,0.9,14,2.5c3,1,6,2.9,9.6,2.4c2-0.3,3.6-1.3,4.1-3.1c0.4-1.7-1.3-2.3-2.3-3.4
		c-2.7-2.7-5.8-1.8-8.9-1.4c-6.2,0.8-14-2.1-15.3-6.2c-1.5-4.7-1.7-9.6,0.5-14.4c5.3-11.2,14.8-15,26.3-15.5
		c5.1-0.2,10.5,0.6,15.4-0.5c10.7-2.4,20.3-0.6,29.4,5.3c1.9,1.2,3.7,2.3,3.3,5c-14.3-10.6-29.3-12.7-45.9-3.3c1-2,1.6-3.1,2.3-4.3
		c-14-1.9-25.9,4.5-29.5,15.8c-3.2,9.9,2.7,17.2,13.1,16.1c7.6-0.8,13.6-4.7,19.5-9.1c3.8-2.8,6.7-6.9,11.6-8.2
		c-5,6.1-11.5,10.2-17.9,14.6c-1,0.7-2.7,0.9-2.7,2.5c-0.1,3.5,5.2,9,8.7,8.9c7.3-0.1,14.6-0.6,21.4,2.7c1.2,0.6,2.3,0.2,3.3-0.4
		c7.7-4.5,16.4-5.8,25-7.6c0.9,0,1.9,0,2.8,0c3.2,0.7,4.7-0.1,3.5-3.7c-1.3-3.8-2.3-7.8-4.9-11l-0.1-0.1c0.1-1.7-1.7-2.9-1.3-4.7
		c3.1,3.7,6.4,7.4,7.2,12.4c0.2,1.5,0.6,3.2,2.5,3.2c1.7,0,1.5-1.9,2.2-3c2.2-3.6,0.7-7.8,1.9-11.7c1.5-4.6,3-9.2,3.4-14.1
		c0.7-8.6,7.1-11.9,14.1-7.3c1,0.6,1.9,1.3,2.7,2.1c5.3,5,8.9,11.3,12.6,17.3c2.5,4.1,4.5,4.7,7.2,1c2.5-3.4,5.7-4.1,9.4-4.2
		c8-0.2,9.6-1.8,9.9-10C524.4,324.5,523.3,322.1,526.1,321.3z M514.4,343.3c-1.7,1.1-3,0.4-4.3,0.3c-9.5-0.5-10.6,0.8-6.9,9.2
		c0.7,1.6,1,3.5,2.7,4.6c5.7-5.5,10.5-11.6,14.2-18.8c-4.6-1.6-8.6-1.4-12.8,2.4C510.2,341.5,512.5,341.3,514.4,343.3z"/>
	<path class="st3" d="M500.1,426.1c-8.2,2.9-16.7,4.1-25.3,4.7c-13.2,0.9-26.5,1.6-39.5-1.5c-0.6-0.1-1.2-0.6-1.7-0.9
		c1.5,0,3.1,0.3,4.2-0.9c7.1-7.8,17-8.4,26.4-10c10.4-1.7,21-2.7,31.4-4.8c2.2-0.4,4.8-1.3,6.6,0.7c1.8,2,0.5,4.4-0.2,6.6
		C501.5,422,499.8,423.7,500.1,426.1z"/>
	<path class="st11" d="M472,379.4c5.9-3.5,12.9-5.2,18.2-9.8c1.5-0.8,3.1-1.6,4.6-2.5c0.3,0.3,0.5,0.6,0.8,0.9
		c-5.9,4.6-12.5,8-19.4,10.8C474.9,379.4,473.6,380,472,379.4z"/>
	<path class="st13" d="M415.3,458.7c3.2-1.6,5.2-4.5,7.9-6.6c2.6-2.1,5.3-3.9,8.9-3.4c-3.3,3.2-7.1,5.9-9.7,9.8
		c-2.5,3.7-3.2,7.2-0.2,10.9c-2-0.7-3.9-1.4-5.9-2.1l0.2,0.1c-0.3-1.4-1.6-1.9-2.5-2.8c-0.4-1-1.1-1.9-0.7-3.1l-0.1,0.1
		c0.8-0.4,1.3-1,1.1-2l-0.1,0.1c0.8,0.1,1.1-0.3,1.1-1.1L415.3,458.7z"/>
	<path class="st11" d="M496,442c3.7,1.3,7.5-2.5,11.1,0.3c-19,3.5-38.1,5.4-57.4,2.8c6.7,0.2,13.5,0.1,20.2,0.3
		c6.9,0.1,13.5-1.1,20.2-2.3c0.3,0,0.7,0,1-0.1C492.8,442.6,494.4,442.3,496,442z"/>
	<path class="st11" d="M507.4,468.6c3.5-0.7,7.1-1.5,10.6-2.2c-5.9,3.4-12.6,4.7-19.1,6.4c-8.6,1.1-17.2,2.1-25.9,3.2
		c0-0.5,0-0.9,0-1.4C484.7,473.4,496.4,472.8,507.4,468.6z"/>
	<path class="st11" d="M416.2,467.2c2,0.7,3.9,1.4,5.9,2.1c4.8,3.1,11,2,15.8,5.3C430.4,473,422.1,473.4,416.2,467.2z"/>
	<path class="st13" d="M431.4,442.4c-1.2-4.5-4.3-8.6-2.9-13.8c1.6-0.3,2.4,1.2,3.6,1.8c0,3.6-0.7,7.3,0.6,10.8
		C433.2,442.6,432.3,442.5,431.4,442.4z"/>
	<path class="st2" d="M473.1,474.7c0,0.5,0,0.9,0,1.4c-7.3,0-14.5,0-21.8,0c0-0.5,0-0.9,0-1.4C458.6,474.7,465.8,474.7,473.1,474.7z
		"/>
	<path class="st8" d="M491.1,442.9c-0.3,0-0.7,0-1,0.1C490.4,442.6,490.8,442.5,491.1,442.9z"/>
	<path class="st8" d="M392.1,431.6c7.4-0.5,14.7-1,22.1-1.4c0.9,2.3,1.8,4.5,2.6,6.8c0.9,2.7,0.3,4.5-2.9,4.6
		c-5,0.1-10-1.6-14.8,1.1c-4.9,1.9-9.5-1.2-14.4-0.9c1.7-2.1,4.2-1.2,6.2-2.2c1.8-0.9,3.7-1.4,4.1-3.8
		C395.4,433.4,393.5,432.7,392.1,431.6z"/>
	<path class="st14" d="M376.1,468.3c4.4,0.1,8.7,0.1,13.1,0.2c0,0.4,0,0.9-0.1,1.3c-0.9,0.9-2,0.8-3.1,0.5c-6.6-1.5-13.2-1.3-19.8,0
		c-1.1,0.2-2.2,0.2-3.9-1C367.3,467.7,371.8,468.9,376.1,468.3z"/>
	<path class="st11" d="M357.9,438c5.8,0.9,11.6,1.7,17.6,2.6C370.9,442,365,441.3,357.9,438z"/>
	<path class="st2" d="M399.1,442.7c4.8-2.7,9.9-1,14.8-1.1c-0.9,0.6-1.8,1.3-2.7,1.9c-1.6-0.1-3.3-0.2-4.9-0.3
		C403.9,442,401.5,442.6,399.1,442.7z"/>
	<path class="st11" d="M366.3,470.2c6.6-1.3,13.2-1.5,19.8,0C379.4,470.2,372.8,470.2,366.3,470.2z"/>
	<path class="st2" d="M389.1,469.8c0-0.4,0-0.9,0.1-1.3c3,0,6-0.1,9-0.1c-1.1,1.4-2.8,0.5-4.2,1.1
		C392.4,469.5,390.8,469.7,389.1,469.8z"/>
	<path class="st8" d="M378.3,440.3c0.7,0.1,2,0.1,2.1,0.4c0.7,1.6-0.6,0.8-1.2,0.7c-0.4,0-0.8-0.3-1.2-0.5
		C378.1,440.8,378.2,440.5,378.3,440.3z"/>
	<path class="st11" d="M529.1,462.3c-0.7,1.2-1.9,1.1-3,1l0,0C526.9,462.2,527.9,462.1,529.1,462.3
		C529.1,462.4,529.1,462.3,529.1,462.3z"/>
	<path class="st11" d="M531.1,461.3c-0.4,0.9-1.2,0.9-2,1l0,0C529.4,461.2,530.2,461.1,531.1,461.3L531.1,461.3z"/>
	<path class="st11" d="M526.1,463.3c-0.3,0.3-0.6,0.5-0.9,0.8c-0.1-0.2-0.3-0.3-0.4-0.5C525.3,463.5,525.7,463.4,526.1,463.3
		L526.1,463.3z"/>
	<path class="st11" d="M285.2,275.3c-0.8,3.4-3.9,4.8-6,7.1C279.2,278.3,282.5,277.1,285.2,275.3z"/>
	<path class="st11" d="M297.2,268.4c-2,1.9-4.2,3.2-7,2.9C292.3,269.8,294.1,267.6,297.2,268.4z"/>
	<path class="st11" d="M286.2,273.4c0.6,0.1,1.9-0.5,1.5,0.7c-0.2,0.8-1.1,2.2-2.6,1.3C285.5,274.7,285.8,274.1,286.2,273.4z"/>
	<path class="st10" d="M411.2,443.5c0.9-0.6,1.8-1.3,2.7-1.9c3.2-0.1,3.8-2,2.9-4.6c-0.8-2.3-1.7-4.5-2.6-6.8c1.3-1.5,3.7-0.1,5-1.7
		c4-0.4,5.7,0.2,7.4,5.2c3,8.9-0.4,13.8-6.8,18.4c-1.3,1-2.5,2.1-3.7,3.2c-3.2-1.8-6.4-3.7-10.2-5.9c3.3,0,6.1,0,8.8,0
		c1.1,0,2.5,0,2.7-1.4c0.1-1.1-1.1-1.5-2-2C414,445.1,412.6,444.4,411.2,443.5z"/>
	<path class="st2" d="M404.2,467.3c-1.8,1.6-4,0.7-6.1,1C399.9,466.5,402.1,467.6,404.2,467.3z"/>
	<path class="st11" d="M414.3,459.4c0.2,1-0.3,1.6-1.1,2C413.2,460.6,412.9,459.5,414.3,459.4z"/>
	<path class="st11" d="M415.3,458.4c0.1,0.8-0.3,1.2-1.1,1.1C414.2,458.7,414.4,458.2,415.3,458.4z"/>
	<path class="st11" d="M417.3,162.4c-0.9-1.9,1-2.3,1.8-3.2c0.1,0.5,0.1,1,0.2,1.4C418.8,161.5,418.4,162.4,417.3,162.4z"/>
	<path class="st2" d="M420.1,158.5c0.3-1.1,0.6-2.1,2-1.1C421.9,158.5,421.5,159.5,420.1,158.5z"/>
	<path class="st2" d="M419.2,160.7c-0.1-0.5-0.1-1-0.2-1.4c0.4-0.3,0.8-0.6,1.3-0.8C421.3,159.8,419.9,160.1,419.2,160.7z"/>
	<path class="st5" d="M471.1,81.2c-0.4,2.2,3.8,5.9-2.2,6.1c-5.9-0.4-11.9-0.9-16,4.8c-2.2,1.7-3.6,1.2-3.8-1.5
		c-0.2-1.7,0-3.5,0-5.3l-0.1,0.1c0.8,0.1,0.9-0.3,0.9-0.9c4.9-4.3,10.4-6.6,17-5.4c-0.2,0.4-2.1,0.3-0.7,1.1
		C467.7,81,469.6,81,471.1,81.2L471.1,81.2z"/>
	<path class="st11" d="M471.2,81.3c-1.7-0.4-3.5-0.4-4.9-1.2c-1.4-0.8,0.5-0.7,0.7-1.1C468.6,79.4,470.5,79.4,471.2,81.3z"/>
	<path class="st11" d="M450,84.4c0,0.6-0.2,1.1-0.9,0.9C449.4,85,449.7,84.7,450,84.4z"/>
	<path class="st5" d="M344.4,90.2c-1.2,1.4,0.2,2.1,1,2.8c1.9,1.6,2.3,3.7,1.3,5.7c-1.2,2.3-3.2,0-4.8,0.3c-2.2,0.8-4.4,1.6-6.5,2.3
		c-1-0.3-1.8,0-2.2,1.1h0.1c-0.7,0-1,0.4-1,1v-0.1c-1,0.3-1.6,0.9-1,2l0,0c-0.9-0.4-0.9,0.3-1,0.9c-1.6,1,0.1,5.1-3.6,3.9
		c-2.9-0.9-2.2-3.5-2.5-5.8c-0.2-1.4,1.8-2.7,0-4c2.8-4.3,7.7-6.2,11.1-9.9C338.3,88.9,341.3,88.6,344.4,90.2z"/>
	<path class="st13" d="M416.6,240.6c0.3-0.1,0.7-0.3,0.9-0.2c7.4,5,8.3,4.8,11.6-3.1c9.2-0.7,18.2-3.6,27.6-3
		c12.3,0.7,23.9,3.7,34,11c5.2,3.7,5.6,6.5,2.6,12.3c-1,1.8-2.8,3.4-2,5.9l0,0c-0.7,0-1,0.4-1,1.1c-8.3,8.3-18.8,10.9-30,11.1
		c-17.1,0.3-33.8-0.7-48.3-11.5c-4.6-3.4-7.2-8-9.3-13.2c-0.6-1.6,0.2-2.4,0.5-3.6C408.6,246.8,411.8,242.1,416.6,240.6z"/>
	<path class="st13" d="M367.1,273.1c-16.5,7.7-43.5-1.6-51.6-17.7c-2-4.1-3.1-8.4-2.2-13c7.2-2.9,14.6-4.3,22.3-4.2
		c9.4,0.1,18.4,2,27.5,4.2c1.8,3.4,4.6,4,8,2.6c1.3,1.9,3.6,2.3,5.3,3.4c5.4,3.5,6,6.5,2.6,11.9c-1.9,3.1-4.4,5.7-7.1,8.1
		C370.2,269.9,367.5,270.4,367.1,273.1z"/>
	<path class="st15" d="M363.1,242.4c-9-2.2-18.1-4-27.5-4.2c-7.8-0.1-15.2,1.3-22.3,4.2c-0.2-2.6,1.5-4.3,3.1-6.1
		c4.2-0.6,8.3-1.5,12.2-2.9c5.8,0,11.7,0,17.5,0c5.4,1,10.7,2,16.1,3l-0.1-0.1c0,0.8,0.5,0.9,1.1,0.9
		C363.1,238.9,363.1,240.6,363.1,242.4z"/>
	<path class="st15" d="M367.1,273.1c0.4-2.7,3.2-3.2,4.8-4.7c2.7-2.5,5.2-5,7.1-8.1c3.4-5.5,2.8-8.4-2.6-11.9
		c-1.8-1.2-4.1-1.5-5.3-3.4c0.9-1.3,1.2-3.2,3.1-3.8c3.6,1.8,7.1,3.5,10.2,6.1c3.1,2,3.3,4.4,1.6,7.6
		C381.5,262.9,376.3,270.1,367.1,273.1z"/>
	<path class="st5" d="M504.2,257.3c-0.5,1.1-0.9,2.3-1.4,3.4c-1.2-1.1-4.9,1.1-4.1-2.4C499.5,255,502,256,504.2,257.3z"/>
	<path class="st15" d="M490.3,264.6c0-0.7,0.4-1,1-1.1C491.3,264.2,491,264.5,490.3,264.6z"/>
	<path class="st7" d="M574.8,277.7c-1.1-0.2-1.8-0.9-2.1-1.9c0.3-0.3,0.6-0.6,0.8-0.9c0.5,0.1,1.1,0.3,1.6,0.4l-0.1-0.1
		c0.1,0.6,0.2,1.2,0.2,1.8C575.2,277.3,575,277.5,574.8,277.7z"/>
	<path class="st7" d="M576.5,278.2c-0.6-0.2-1.2-0.4-1.7-0.5c0.2-0.2,0.4-0.4,0.5-0.6c0.3,0.1,0.5,0.2,0.8,0.3l-0.1-0.1
		C576.2,277.6,576.4,277.9,576.5,278.2z"/>
	<path class="st4" d="M576.5,278.2c-0.2-0.3-0.3-0.6-0.5-0.9c0.4,0,0.8,0,1.2,0C577,277.6,576.8,277.9,576.5,278.2z"/>
	<path class="st2" d="M374.1,241.2c-1.9,0.6-2.1,2.4-3.1,3.8c-3.4,1.4-6.1,0.7-8-2.6c0-1.7,0.1-3.4,0.1-5.2c0-0.2,0-0.5,0-0.7
		C367.1,237.3,370.9,238.6,374.1,241.2z"/>
	<path class="st11" d="M362.2,236.4c-5.4-1-10.7-2-16.1-3c0-0.3,0-0.6,0-0.9C351.6,233.4,357.2,233.5,362.2,236.4z"/>
	<path class="st2" d="M346.1,232.5c0,0.3,0,0.6,0,0.9c-5.8,0-11.7,0-17.5,0C334.3,231.2,340.3,232.6,346.1,232.5z"/>
	<path class="st11" d="M363.1,236.5c0,0.2,0,0.5,0,0.7c-0.6,0-1.1-0.1-1.1-0.9C362.4,236.4,362.8,236.4,363.1,236.5z"/>
	<path class="st11" d="M498,245.3c0.7,0,1.2,0.2,1.1,1.1C498.8,246,498.4,245.7,498,245.3z"/>
	<path class="st3" d="M350.6,207.9h0.3l0.2,0.3c-0.2,0.1-0.4,0.3-0.6,0.4C350.6,208.4,350.6,208.2,350.6,207.9z"/>
	<path class="st4" d="M575.2,275.4c-0.5-0.1-1.1-0.3-1.6-0.4c-1.4-2.2-2.9-4.5-4.3-6.7c1.3,0.4,3.2-0.5,3.9,1.5
		c-0.3,1.1-0.3,2.1,1.1,2.5l0,0c-0.1,0.8,0.1,1.3,1,1l0.1-0.1C575.3,273.9,575.2,274.6,575.2,275.4z"/>
	<path class="st7" d="M574.2,272.3c-1.4-0.4-1.3-1.4-1.1-2.5C573.6,270.6,575.4,270.8,574.2,272.3z"/>
	<path class="st7" d="M575.2,273.3c-0.9,0.3-1.1-0.2-1-1c0.3-0.1,0.6-0.2,0.8-0.2C575.1,272.4,575.1,272.8,575.2,273.3z"/>
	<path class="st10" d="M330.1,106.2c0.1-0.6,0.1-1.3,1-0.9c0.2,1.5,0.4,3,0.7,4.5C329.6,109.4,330.3,107.6,330.1,106.2z"/>
	<path class="st10" d="M333.1,102.4c0.4-1.1,1.2-1.3,2.2-1.1C334.9,102.3,334.4,103.2,333.1,102.4z"/>
	<path class="st10" d="M331.2,105.4c-0.5-1.1,0-1.7,1-2C332.7,104.4,332.4,105.1,331.2,105.4z"/>
	<path class="st10" d="M332.1,103.4c0-0.7,0.4-1,1-1C333.6,103.5,333,103.6,332.1,103.4z"/>
	<path class="st4" d="M576.1,277.4c-0.3-0.1-0.5-0.2-0.8-0.3c-0.1-0.6-0.2-1.2-0.2-1.8C576.2,275.6,576.6,276.3,576.1,277.4z"/>
	<path class="st15" d="M494.9,367.1c-1.5,0.8-3.1,1.6-4.6,2.5c0.6-12.6-0.8-24.8-6.4-36.2c-2.2-4.5-3.8-10.3-10.8-10
		c0.4-4.1,2.2-3.9,5.1-2c10.8,7.4,16.7,18.3,21.9,29.7c3.7,8.3,3.6,8.3-3.1,14C496.3,365.6,495.6,366.4,494.9,367.1z"/>
	<path class="st15" d="M321.4,320.3c4.6,9.7,6.1,20.4,9.9,30.3c0.7,1.9-0.3,2.4-1.7,2.5c-2,0.2-3.7,1.2-5.5,2
		c-1.2-10.6-0.5-21.4-3.1-31.9C320.7,322.2,319.8,321.1,321.4,320.3z"/>
	<path class="st13" d="M412.3,307.4c0.3,2.6-0.6,4.8-2.3,6.8c-10.3,5.1-21.3,5-31.2,0.6c-4.4-1.9-7-1.6-11.3-1.3
		c-10.9,0.7-21.6-2.2-30.4-9.8c-2-1.7-1.5-3.9-1.8-6.9c-2.5,4.5-5.9,5.1-9.8,4.2c-3.7-0.9-7.2-2.3-10.4-4.6c-2-1.5-4.1-2.9-5.5-5
		c1.5,0.2,2.5-0.6,3.3-1.8c3-4.6,6.7-4.4,11.2-2.3c20.3,9.6,41.6,15.8,63.8,18.7C395.9,307.1,404.1,307,412.3,307.4z"/>
	<path class="st10" d="M442.1,332.2c0.4-2.7-1.4-3.8-3.3-5c-9.1-5.9-18.7-7.7-29.4-5.3c-4.9,1.1-10.3,0.2-15.4,0.5
		c-11.5,0.5-21.1,4.3-26.3,15.5c-2.3,4.8-2,9.7-0.5,14.4c1.3,4.1,9.1,7,15.3,6.2c3.1-0.4,6.1-1.3,8.9,1.4c1.1,1.1,2.8,1.7,2.3,3.4
		c-0.5,1.8-2.1,2.8-4.1,3.1c-3.5,0.5-6.6-1.3-9.6-2.4c-4.6-1.6-9.4-2.4-14-2.5c-6-0.1-11.2-2-16.5-4.4c-4-1.8-7.9-4.3-12.6-4.6
		c-2.1-0.2-4.1-1.6-4.3-3.6c-1.2-8.5-4.6-16.4-6.4-24.8c-0.7-3.3-3.2-5.3-4.9-7.9c-0.8-3.3-2.6-2.3-4.4-1
		c-4.3,3.4-7.9,7.8-10.3,12.6c-2.4,4.9-5.6,9.4-7.4,14.5c-1.1,3-2.6,3.3-5.1,1.2c-5.1-4.5-6-11.5-10-16.5c-2.5-3.2-0.5-7.8-3.7-10.6
		c-0.2-3.7-0.4-7.3-0.6-11c3.5-1.2,3.4-5,4.5-7.6c2-4.4,7.1-6.4,7.9-11.5c3,0.3,4.7-2.2,7.2-3.2c2.3-0.9,4.7-0.5,4.6,1.8
		c-0.1,8.1,6.1,10.9,11.5,14.2c4.2,2.6,8.9,4.3,14.1,4.1c2.8-0.1,5,0.7,7.2,2.6c7.8,6.2,16.4,10.5,26.8,9.6
		c6.2-0.5,12.3,0.5,18.1,2.4c8.2,2.6,16.4,1.4,24.6,0.2c1.8-0.3,4.1-0.8,3.8-3.7c2.9-0.4,4-2.3,4-4.8c-0.1-4.3,2.2-5.5,6-5.2
		c2,0.2,4,0,6,0c4.1-0.1,8.6-0.8,8.6,5.5c0,0.2,0.8,0.4,1.3,0.6c1.6,4.1,5.5,3.8,8.8,4.3c8.2,1.3,16.3,1.4,23.7-3.1
		c4.9-3,8.5-6.5,7.7-13.2c-0.8-6.6,3-9.7,9.6-9.1c1.9,0.2,3.5,0.6,4.2,2.8c2.6,8.1,4.5,9.5,12.7,9.2c4-0.2,8-0.6,11.7-2
		c6-2.3,7.5-1.6,9.4,4.6c0.4,1.4,0.2,3.1,2.2,3.5c0,4.6,0,9.3,0,13.9c-2.8,0.9-1.7,3.2-1.8,5.1c-0.4,8.1-2,9.8-9.9,10
		c-3.7,0.1-6.9,0.8-9.4,4.2c-2.7,3.7-4.7,3.1-7.2-1c-3.8-6.1-7.3-12.3-12.6-17.3c-0.8-0.8-1.8-1.5-2.7-2.1c-7-4.6-13.4-1.3-14.1,7.3
		c-0.4,4.9-2,9.5-3.4,14.1c-1.2,3.8,0.3,8-1.9,11.7c-0.6,1.1-0.5,3-2.2,3c-1.9,0-2.2-1.8-2.5-3.2c-0.9-5.1-4.1-8.7-7.2-12.4h0.1
		c-0.2-1.9-1.1-3.1-3.2-2.9h0.1c0-1.7-1-2.2-2.5-2.1C444.4,334.3,443.3,333.2,442.1,332.2z"/>
	<path class="st7" d="M418.9,427.9c-3,0.3-6,0.7-9,1c0.3-1.7-0.8-2.7-1.7-3.8c-0.4-0.9-0.8-1.7-1.1-2.6c5.5-0.1,11-0.2,16.5-0.3
		c1.7,0,3.7-0.1,4,2c0.4,2.6-2.1,2.5-3.7,3C422.1,427.6,420.4,427,418.9,427.9z"/>
	<path class="st15" d="M491.4,289.4c-1.1-2.6,0.8-2.6,2.4-3c7.7-1.7,15.1-1.4,21.5,4.1c0.6,0.5,1.4,1.1,1.8-0.2l-0.1-0.1
		c1.2,6.8,1.2,6.8-8.7,8.6C505.2,291.3,499.1,288.9,491.4,289.4z"/>
	<path class="st13" d="M491.4,289.4c7.7-0.5,13.8,1.8,17,9.4c-1.5,0.2-2.9,0.4-4.4,0.5C494.6,299.6,493.7,298.8,491.4,289.4z"/>
	<path class="st4" d="M408.1,425.1c0.9,1.1,2.1,2.1,1.7,3.8c-3.9,0.2-7.8,0.4-11.7,0.6c1.7-2,4-1.1,6-1.2
		C406.4,428.3,408.1,427.8,408.1,425.1z"/>
	<path class="st16" d="M442.1,332.2c1.2,1.1,2.4,2.1,3.6,3.2c0.7,0.9,1.1,2,2.5,2.1h-0.1c0.2,0.6,0.4,1.1,0.5,1.7
		c-0.4,3,0.8,5.1,3.8,6l0.1,0.1c-0.6,5,2.7,9.6,1.4,14.7c-0.9,0-1.9,0-2.8,0c0.5-6.1-3.1-10.7-5.8-15.6c0-0.3-0.1-0.6-0.2-0.8
		c-0.3-0.4-0.5-0.8-0.8-1.1l0,0c0-1.5,0.2-3.1-2.2-2.5l-0.3-0.3c0.6-2.5-1.2-2.1-2.6-2.2c-0.2-0.1-0.5-0.3-0.7-0.4
		c-0.3-1.2-1-1.7-2.3-1.4l-0.2-0.2c-0.5-1.3-1.6-1.3-2.7-1.1c-0.3-0.1-0.6-0.2-0.9-0.2c-0.7-0.5-1.3-0.9-2.1-0.3l-0.4-0.2
		c-3.3-2.4-6.4-2-9.3,0.8c-2.3,1.7-5.9,1.6-7.2,4.8v-0.1c-4.9,1.3-7.8,5.3-11.6,8.2c-5.9,4.4-11.9,8.4-19.5,9.1
		c-10.4,1.1-16.4-6.2-13.1-16.1c3.6-11.2,15.6-17.7,29.5-15.8c-0.6,1.2-1.2,2.3-2.3,4.3C412.7,319.5,427.8,321.6,442.1,332.2z
		 M391.5,332.8c2.1-0.9,4.3-1.7,5.2-4.8C393.7,328.9,392.2,330.4,391.5,332.8z"/>
	<path class="st17" d="M445.1,344.3c2.7,4.9,6.3,9.5,5.8,15.6c-8.6,1.7-17.3,3.1-25,7.6c-1,0.6-2.2,1-3.3,0.4
		c-6.9-3.3-14.2-2.8-21.4-2.7c-3.5,0.1-8.9-5.5-8.7-8.9c0.1-1.7,1.7-1.9,2.7-2.5c6.4-4.3,12.9-8.5,17.9-14.6v0.1
		c0.8-0.2,1.7-0.1,2.3-0.5c8.3-5.2,16.4-4,24.3,0.9C441.2,341.6,442.2,344,445.1,344.3z"/>
	<path class="st15" d="M514.4,343.3c-2-2-4.2-1.8-7-2.2c4.2-3.8,8.2-4,12.8-2.4c-3.7,7.2-8.5,13.3-14.2,18.8c-1.7-1.2-2-3.1-2.7-4.6
		c-3.7-8.4-2.7-9.7,6.9-9.2C511.4,343.7,512.7,344.4,514.4,343.3z"/>
	<path class="st17" d="M453.8,360c1.3-5.1-2-9.7-1.4-14.7c2.5,3.3,3.6,7.2,4.9,11C458.5,359.9,457,360.7,453.8,360z"/>
	<path class="st17" d="M452.3,345.1c-3-0.9-4.2-2.9-3.8-6c0.9,0.3,1.3,1.7,2.6,1.2H451C450.5,342.2,452.4,343.4,452.3,345.1z"/>
	<path class="st11" d="M451.1,340.4c-1.3,0.5-1.7-0.9-2.6-1.2c-0.2-0.6-0.3-1.1-0.5-1.7C450,337.3,450.9,338.5,451.1,340.4z"/>
	<path class="st11" d="M448.1,337.4c-1.3-0.1-1.8-1.2-2.5-2.1C447.1,335.3,448.1,335.7,448.1,337.4z"/>
	<path class="st11" d="M439.7,339.7c-7.9-4.9-16-6.2-24.3-0.9c-0.6,0.4-1.6,0.4-2.3,0.5c1.4-3.2,4.9-3,7.2-4.8
		c3.1-0.3,6.2-0.5,9.3-0.8l0.4,0.2c0.7,0.1,1.4,0.2,2.1,0.3c0.3,0,0.6,0.1,0.9,0.2c0.6,1.1,1.7,1,2.7,1.1l0.2,0.2
		c0.6,0.7,1.3,1.3,2.3,1.4c0.3,0.1,0.5,0.2,0.7,0.4c0.4,0.6,0.8,1.2,1.1,1.8C440,339.4,439.8,339.6,439.7,339.7z"/>
	<path class="st11" d="M391.5,332.8c0.7-2.4,2.2-3.9,5.2-4.8C395.9,331.1,393.6,331.9,391.5,332.8z"/>
	<path class="st17" d="M429.6,333.7c-3.1,0.3-6.2,0.5-9.3,0.8C423.2,331.8,426.3,331.4,429.6,333.7z"/>
	<path class="st11" d="M445.1,344.3c-2.9-0.3-3.9-2.7-5.4-4.6c0.2-0.1,0.3-0.3,0.5-0.4c0.5,0.1,0.9,0.2,1.4,0.3l0.3,0.3
		c0.4,1.1,1,2.1,2.2,2.5l0,0c0.3,0.4,0.5,0.8,0.8,1.1C445,343.8,445.1,344,445.1,344.3z"/>
	<path class="st17" d="M441.6,339.6c-0.5-0.1-0.9-0.2-1.4-0.3c-0.4-0.6-0.8-1.2-1.1-1.8C440.4,337.5,442.2,337.2,441.6,339.6z"/>
	<path class="st17" d="M444.1,342.4c-1.2-0.4-1.8-1.4-2.2-2.5C444.2,339.2,444,340.9,444.1,342.4z"/>
	<path class="st17" d="M438.3,337.1c-1,0-1.7-0.6-2.3-1.4C437.3,335.3,438,335.8,438.3,337.1z"/>
	<path class="st17" d="M435.8,335.6c-1-0.1-2.1,0-2.7-1.1C434.2,334.2,435.3,334.3,435.8,335.6z"/>
	<path class="st17" d="M432.2,334.2c-0.7-0.1-1.4-0.2-2.1-0.3C430.9,333.3,431.5,333.7,432.2,334.2z"/>
	<path class="st17" d="M444.9,343.5c-0.3-0.4-0.5-0.8-0.8-1.1C444.3,342.8,444.6,343.1,444.9,343.5z"/>
</g>
<g>
	<g>
		<path class="st18" d="M918.7,354.8v-93.1c0-3.9-1.1-7.4-3.4-10.3c-3.4-4.4-7.8-5.4-11.1-5.4h-23.1v108.7h-19.2V246.1h-37.5v108.7
			h-19.2V216H907c7.8,0,14.9,3.9,20.9,11.7c6.6,8.4,9.8,18.6,9.8,30.5v96.7h-19.1V354.8z"/>
		<path class="st1" d="M907,219c6,0,11.7,3.4,16.9,10.1c6.3,8,9.4,17.7,9.4,29.1v93.7h-10v-90.1c0-4.4-1.4-8.3-3.8-11.6
			c-4.6-6.1-11.5-7-15.2-7h-18.5h-9.2v6v102.7h-10V249.1v-6h-9.2H829h-9.2v6v102.7h-10V219H907 M907,213H800.5v144.9H829V249.1h28.3
			v108.7h28.5V249.1h18.5c2.8,0,5.1,1.2,6.9,3.7c2,2.5,2.9,5.4,2.9,8.9v96.1h28.5v-99.7c0-12.4-3.5-23-10.5-31.8
			C925.1,217.4,916.7,213,907,213L907,213z"/>
	</g>
	<g>
		<path class="st18" d="M979.5,354.8c-6.9,0-13.2-3.8-18.9-11.4c-6.2-8.3-9.2-18.1-9.2-29.2c0-11,3.1-20.7,9.2-28.9
			c5.5-7.6,11.8-11.5,18.9-11.5h57.1v-13.9c0-3.4-1.1-6.4-3.1-8.9c-3.1-4-7.2-4.9-10-4.9h-64.9v-30.2h66.3c7.8,0,14.9,3.9,20.9,11.7
			c6.6,8.4,9.8,18.6,9.8,30.5v96.7L979.5,354.8L979.5,354.8z M983.6,296.9c-2.8,0-6.9,0.9-10.2,4.9c-2,2.5-2.9,5.5-2.9,8.9
			s0.9,6.4,2.9,9c3.2,4.1,7.2,5,10.2,5h52.9v-27.8H983.6z"/>
		<path class="st1" d="M1024.8,219c6,0,11.7,3.4,16.9,10.1c6.3,8,9.4,17.7,9.4,29.1v93.7h-71.7c-6.3,0-11.4-5.2-14.6-9.6
			c-5.8-7.9-8.8-17.3-8.8-27.9c0-10.5,2.9-19.8,8.8-27.7c3.2-4.4,8.5-9.7,14.6-9.7h52.5h9.2v-6v-10.9c0-3.9-1.2-7.3-3.5-10.3
			c-4.5-5.7-10.8-6.5-14.2-6.5h-60.3v-24.2L1024.8,219 M983.6,327.6h48.3h9.2v-6v-21.8v-6h-9.2h-48.3c-3.4,0-9.7,0.9-14.2,6.6
			c-2.3,3-3.5,6.4-3.5,10.3c0,3.8,1.2,7.3,3.4,10.3l0,0l0,0C973.9,326.8,980.2,327.6,983.6,327.6 M1024.8,213h-70.9v36.2h69.5
			c2.3,0,4.3,1.1,6,3.3c1.7,2.1,2.6,4.6,2.6,7.5v10.9h-52.5c-8.9,0-16.6,4.4-23.1,13.2c-6.5,8.7-9.7,18.8-9.7,30.2
			c0,11.5,3.2,21.7,9.7,30.5c6.5,8.7,14.2,13.1,23.1,13.1h80.9v-99.7c0-12.4-3.5-23-10.5-31.8C1043,217.4,1034.7,213,1024.8,213
			L1024.8,213z M983.6,321.6c-2.3,0-4.3-1.1-6-3.3c-1.7-2.2-2.5-4.7-2.5-7.6s0.8-5.4,2.5-7.5c1.7-2.2,3.7-3.3,6-3.3h48.3v21.8h-48.3
			V321.6z"/>
	</g>
	<g>
		<path class="st18" d="M1154.5,354.8v-93.1c0-3.9-1.1-7.4-3.4-10.3c-3.7-4.4-8.2-5.4-11.2-5.4h-51.4v108.7h-19.2V216h73.4
			c7.8,0,14.9,3.9,20.9,11.7c6.6,8.4,9.8,18.6,9.8,30.5v96.7h-18.9V354.8z"/>
		<path class="st1" d="M1142.8,219c6,0,11.7,3.4,16.9,10.1c6.3,8,9.4,17.7,9.4,29.1v93.7h-9.8v-90.1c0-4.4-1.4-8.3-3.8-11.6v-0.1
			V250c-4.6-5.7-10.9-6.9-15.2-6.9h-46.8h-9.2v6v102.7h-10V219H1142.8 M1142.8,213h-78v144.9h28.5V249.1h46.8c2.6,0,5.1,1.2,7.1,3.7
			s2.9,5.4,2.9,8.9v96.1h28.3v-99.7c0-12.4-3.5-23-10.5-31.8C1161,217.4,1152.5,213,1142.8,213L1142.8,213z"/>
	</g>
	<g>
		<path class="st18" d="M1218.1,354.8c-7.8,0-14.9-3.9-20.9-11.6c-6.6-8.4-9.8-18.8-9.8-30.7v-54.3c0-11.8,3.4-22.1,9.8-30.5
			c6-7.8,13.1-11.7,20.9-11.7h66.3v30.2h-63.5c-3.1,0-7.5,0.9-11.1,5.3c-2.3,3-3.4,6.4-3.4,10.3v47.1c0,4,1.1,7.5,3.4,10.4
			c3.7,4.5,8.2,5.4,11.2,5.4h51.5v-27.8h-28.5v-23h47.5v80.9L1218.1,354.8L1218.1,354.8z"/>
		<path class="st1" d="M1279.9,219v24.2H1221c-4.3,0-10.5,1.2-15.2,6.9v0.1v0.1c-2.5,3.3-3.8,7.2-3.8,11.6V309
			c0,4.5,1.2,8.4,3.8,11.7v0.1v0.1c4.6,5.7,10.9,6.9,15.2,6.9h46.9h9.2v-6V300v-6h-9.2h-19.2v-17h38.3v74.9h-68.8
			c-5.8,0-11.5-3.4-16.9-10c-6.2-8-9.4-17.9-9.4-29.3v-54.3c0-11.4,3.2-21.2,9.4-29.1c5.2-6.7,10.9-10.1,16.9-10.1h61.7 M1289.2,213
			h-70.9c-9.8,0-18.2,4.5-25.1,13.4c-6.9,8.8-10.5,19.5-10.5,31.8v54.3c0,12.5,3.5,23.1,10.5,32.1c7.1,8.8,15.4,13.3,25.1,13.3h78
			V271h-56.8v29h28.5v21.8H1221c-2.6,0-5.1-1.2-7.1-3.7c-1.8-2.5-2.8-5.5-2.8-9V262c0-3.5,0.9-6.4,2.8-8.9c2-2.5,4.5-3.7,7.1-3.7
			h68.2V213L1289.2,213z"/>
	</g>
	<g>
		<path class="st18" d="M1333.3,354.8c-6.9,0-13.2-3.8-18.9-11.4c-6.2-8.3-9.2-18.1-9.2-29.2c0-11,3.1-20.7,9.2-28.9
			c5.5-7.6,11.8-11.5,18.9-11.5h57.1v-13.9c0-3.4-1.1-6.4-3.1-8.9c-3.1-4-7.2-4.9-10-4.9h-64.9v-30.2h66.3c7.8,0,14.9,3.9,20.9,11.7
			c6.6,8.4,9.8,18.6,9.8,30.5v96.7L1333.3,354.8L1333.3,354.8z M1337.5,296.9c-2.8,0-6.9,0.9-10,4.9c-2,2.5-2.9,5.5-2.9,8.9
			s0.9,6.4,2.9,9c3.2,4.1,7.2,5,10.2,5h52.9v-27.8H1337.5z"/>
		<path class="st1" d="M1378.7,219c6,0,11.7,3.4,16.9,10.1c6.3,8,9.4,17.7,9.4,29.1v93.7h-71.7c-6.3,0-11.4-5.2-14.6-9.6
			c-5.8-7.9-8.8-17.3-8.8-27.9c0-10.5,2.9-19.8,8.8-27.7c3.2-4.4,8.5-9.7,14.6-9.7h52.5h9.2v-6v-10.9c0-3.9-1.2-7.3-3.5-10.3
			c-4.5-5.7-10.8-6.5-14.2-6.5H1317v-24.2L1378.7,219 M1337.5,327.6h48.3h9.2v-6v-21.8v-6h-9.2h-48.3c-3.4,0-9.7,0.9-14.2,6.6
			c-2.3,3-3.5,6.4-3.5,10.3c0,3.8,1.2,7.3,3.4,10.3l0,0l0,0C1327.8,326.8,1334.1,327.6,1337.5,327.6 M1378.7,213h-70.9v36.2h69.5
			c2.3,0,4.3,1.1,6,3.3c1.7,2.1,2.6,4.6,2.6,7.5v10.9h-52.5c-8.9,0-16.6,4.4-23.1,13.2c-6.5,8.7-9.7,18.8-9.7,30.2
			c0,11.5,3.2,21.7,9.7,30.5c6.5,8.7,14.2,13.1,23.1,13.1h80.6v-99.7c0-12.4-3.5-23-10.5-31.8C1396.9,217.4,1388.4,213,1378.7,213
			L1378.7,213z M1337.5,321.6c-2.3,0-4.3-1.1-6-3.3c-1.7-2.2-2.5-4.7-2.5-7.6s0.8-5.4,2.5-7.5c1.7-2.2,3.7-3.3,6-3.3h48.3v21.8
			h-48.3V321.6z"/>
	</g>
	<g>
		<path class="st18" d="M1508.3,354.8v-93.1c0-3.9-1.1-7.4-3.4-10.3c-3.7-4.4-8.2-5.4-11.2-5.4h-51.4v108.7H1423V216h73.4
			c7.8,0,14.9,3.9,20.9,11.7c6.6,8.4,9.8,18.6,9.8,30.5v96.7h-18.9V354.8z"/>
		<path class="st1" d="M1496.6,219c6,0,11.7,3.4,16.9,10.1c6.3,8,9.4,17.7,9.4,29.1v93.7h-9.8v-90.1c0-4.4-1.4-8.3-3.8-11.6v-0.1
			V250c-4.6-5.7-10.9-6.9-15.2-6.9h-46.8h-9.2v6v102.7h-10V219H1496.6 M1496.6,213h-78v144.9h28.5V249.1h46.8c2.6,0,5.1,1.2,7.1,3.7
			s2.9,5.4,2.9,8.9v96.1h28.3v-99.7c0-12.4-3.5-23-10.5-31.8C1514.7,217.4,1506.4,213,1496.6,213L1496.6,213z"/>
	</g>
	<g>
		<rect x="1546.7" y="216" class="st18" width="19.2" height="138.9"/>
		<path class="st1" d="M1561.3,219v132.9h-10V219H1561.3 M1570.6,213h-28.5v144.9h28.5V213L1570.6,213z"/>
	</g>
	<g>
		<path class="st18" d="M1698.7,354.8v-93.1c0-3.9-1.1-7.4-3.4-10.3c-3.4-4.4-7.8-5.4-11.1-5.4h-23.1v108.7H1642V246.1h-37.5v108.7
			h-19.2V216H1687c7.8,0,14.9,3.9,20.9,11.7c6.6,8.4,9.8,18.6,9.8,30.5v96.7h-19.1V354.8z"/>
		<path class="st1" d="M1687,219c6,0,11.7,3.4,16.9,10.1c6.3,8,9.4,17.7,9.4,29.1v93.7h-10v-90.1c0-4.4-1.4-8.3-3.8-11.6
			c-4.6-6.1-11.5-7-15.2-7h-18.5h-9.2v6v102.7h-10V249.1v-6h-9.2H1609h-9.2v6v102.7h-10V219H1687 M1687,213h-106.5v144.9h28.5V249.1
			h28.3v108.7h28.5V249.1h18.5c2.8,0,5.1,1.2,7.1,3.7c2,2.5,2.9,5.4,2.9,8.9v96.1h28.5v-99.7c0-12.4-3.5-23-10.5-31.8
			C1705.2,217.4,1696.9,213,1687,213L1687,213z"/>
	</g>
	<g>
		<path class="st18" d="M1762.4,354.8c-7.8,0-14.9-3.9-20.9-11.6c-6.6-8.4-9.8-18.8-9.8-30.7v-54.3c0-11.8,3.4-22.1,9.8-30.5
			c6-7.8,13.1-11.7,20.9-11.7h45.4c6.9,0,13.2,3.9,18.8,11.4c6.2,8.3,9.2,18,9.2,29c0,11-3.1,20.7-9.2,29.1
			c-5.5,7.6-11.8,11.5-18.8,11.5h-57.1v13.7c0,3.4,0.9,6.4,2.9,9c3.2,4.1,7.2,5,10.2,5h64.9v30.2h-66.3V354.8z M1763.8,246.1
			c-2.8,0-6.9,0.9-10.2,4.9c-2,2.5-2.9,5.5-2.9,8.9v13.9h52.9c3.1,0,7.2-0.8,10.2-4.8c1.8-2.5,2.8-5.5,2.8-9.2
			c0-3.6-0.9-6.7-2.8-9.1c-2.9-3.9-7.2-4.7-10.2-4.7h-39.8V246.1z"/>
		<path class="st1" d="M1807.8,219c6.3,0,11.4,5.3,14.6,9.8c5.8,7.8,8.8,17.1,8.8,27.7c0,10.5-2.9,19.9-8.8,27.8
			c-3.2,4.4-8.5,9.7-14.6,9.7h-52.5h-9.2v6v10.7c0,3.8,1.2,7.3,3.4,10.3l0,0l0,0c4.5,5.7,10.8,6.6,14.2,6.6h60.3v24.2h-61.7
			c-5.8,0-11.5-3.4-16.9-10c-6.2-8-9.4-17.9-9.4-29.3v-54.3c0-11.4,3.2-21.2,9.4-29.1c5.2-6.7,10.9-10.1,16.9-10.1H1807.8
			 M1746.1,276.9h9.2h48.3c3.5,0,10.2-0.8,14.3-6.4c2.2-2.9,3.2-6.4,3.2-10.5c0-4.1-1.1-7.6-3.2-10.5c-4.3-5.5-10.8-6.3-14.3-6.3
			h-39.8c-3.4,0-9.7,0.9-14.2,6.6c-2.3,3-3.5,6.4-3.5,10.3V271V276.9 M1807.8,213h-45.4c-9.8,0-18.2,4.5-25.1,13.4
			c-6.9,8.8-10.5,19.5-10.5,31.8v54.3c0,12.5,3.5,23.1,10.5,32.1c7.1,8.8,15.4,13.3,25.1,13.3h70.9v-36.2h-69.5
			c-2.3,0-4.3-1.1-6-3.3c-1.7-2.2-2.5-4.7-2.5-7.6V300h52.5c8.9,0,16.6-4.4,23.1-13.2c6.5-8.8,9.7-18.9,9.7-30.4
			c0-11.5-3.2-21.5-9.7-30.2C1824.4,217.3,1816.8,213,1807.8,213L1807.8,213z M1755.4,270.9V260c0-2.9,0.8-5.4,2.5-7.5
			c1.7-2.2,3.7-3.3,6-3.3h39.8c2.5,0,4.5,1,6,3s2.3,4.6,2.3,7.8s-0.8,5.8-2.3,7.9s-3.5,3.1-6,3.1h-48.3V270.9z"/>
	</g>
</g>
<g>
	<g class="st19">
		<path class="st20" d="M1467.9,281.3c3.5,0,5.3,2.3,5.3,6.8c0,4-2.1,13.6-6.4,28.7c-2.7,9.5-4.8,20-6.3,31.5
			c-1.5,11.5-2.2,20.5-2.2,27c0,8.1,0.5,16.1,1.5,24.1c0.2,1.5,0.3,2.6,0.3,3.3c0,2.5-0.8,4.6-2.5,6.3c-1.7,1.8-3.4,2.6-5.3,2.6
			c-2.6,0-4.4-1.6-5.4-4.9c-1-3.2-1.5-8.5-1.5-15.7c0-16.4,2-36.8,5.9-61c3.9-24.3,7.1-38.5,9.4-42.6
			C1463.1,283.4,1465.5,281.3,1467.9,281.3z"/>
		<path class="st20" d="M1503.7,389.5c0,3.7,0.5,7.9,1.5,12.6c0.2,0.9,0.3,1.6,0.3,2.2c0,0.9-0.8,2-2.4,3.4
			c-1.6,1.4-3.3,2.1-5.1,2.1c-4.8,0-7.1-4.4-7.1-13.1c0-9,1.9-23.3,5.6-42.8c1.3-6.8,1.9-11,1.9-12.6c0-3.1,0.6-5.7,1.7-7.9
			c1.1-2.2,2.7-3.3,4.8-3.3c2.5,0,4.5,0.6,5.9,1.8c1.4,1.2,2.2,2.5,2.2,4c0,1.5-0.3,3.4-1,5.8c-3.7,12.9-6,22.2-6.8,27.8
			C1504.1,375.2,1503.7,381.8,1503.7,389.5z M1513.3,307.4c-1,0-1.8-1.1-2.4-3.3c-0.2-0.7-0.5-1.4-0.8-2.3c-1.3-3.2-2-6-2-8.3
			c0-2,1.2-4,3.5-6c2.3-2,4.9-3.1,7.8-3.1c1.4,0,3,0.6,4.8,1.7c1.8,1.1,2.6,2.2,2.6,3.2c0,1.6-0.6,4.4-1.8,8.2
			c-1.2,3.9-3.1,6.5-5.7,7.8C1516.7,306.7,1514.7,307.4,1513.3,307.4z"/>
		<path class="st20" d="M1551,364c6.3-11.4,13.8-20.7,22.5-27.8c8.7-7.1,16.6-10.6,23.6-10.6c3.9,0,7.2,1.8,9.9,5.4
			c2.7,3.6,4,7.9,4,13.1c0,15.2-5.7,29.6-17.2,42.9c-11.5,13.4-23.6,20-36.4,20c-3.5,0-6.7-0.9-9.6-2.8c-2.9-1.9-4.5-4.3-4.9-7.1
			c-0.2-2.3-0.9-4-2-5.1c-2.1-2.1-3.2-4.4-3.2-6.8c0-4.5,1.2-14,3.7-28.6l7.6-44c2.6-14.8,4.5-23.9,5.7-27.4c1.2-3.5,2.5-5.8,4-7
			c1.5-1.2,3.3-1.8,5.4-1.8c3.4,0,5.1,3,5.1,8.9c0,5.6-1.9,13.5-5.7,23.7C1559.9,318.8,1555.7,337.1,1551,364z M1549.2,388.5
			c2.5,4.8,5.6,7.1,9.3,7.1c5.6,0,11.5-2.3,17.7-7c6.2-4.6,11.6-11.2,16.1-19.6c4.5-8.4,6.8-15.5,6.8-21.3c0-2.6-0.5-4.8-1.4-6.7
			c-0.9-1.9-2.1-2.8-3.5-2.8c-6.8,0-15.1,5.6-25,16.7C1559.4,366.2,1552.7,377.4,1549.2,388.5z"/>
		<path class="st20" d="M1644.4,376.6c0.5-0.9,1.1-2.1,1.8-3.7c3.3-7.6,6.4-13.6,9.2-18c2.8-4.3,5.9-8.5,9.2-12.5c3.4-4,6.4-7,9.2-9
			c2.8-2.1,5.3-3.5,7.5-4.3c2.3-0.8,4.4-1.2,6.5-1.2c4.3,0,7.7,1.3,10.4,3.9c2.7,2.6,4,5.6,4,9c0,1.5-0.5,2.9-1.4,4.1
			c-1,1.2-2.4,1.8-4.4,1.8c-2.1,0-3.9-0.9-5.7-2.7c-1.8-1.8-3.6-2.7-5.5-2.7c-5.1,0-12.2,6.2-21.2,18.5c-9,12.4-14.5,26-16.5,40.8
			c-0.5,3.8-1.4,6.3-2.8,7.6c-1.4,1.2-3.3,1.8-5.8,1.8c-2.4,0-4.1-1.8-5.2-5.4c-1.1-3.6-1.6-9.6-1.6-18.1c0-2.3,0.1-7.4,0.4-15.2
			c0.3-9.3,0.9-16.7,1.8-22.4c0.1-0.9,0.4-3.1,0.7-6.5c0.3-3.8,0.8-6.4,1.3-7.9c0.5-1.5,1.6-2.8,3.2-4.1c1.6-1.3,3.3-1.9,5.2-1.9
			c1.8,0,3.2,0.6,4.1,1.7c0.9,1.2,1.4,2.4,1.4,3.7c0,1.9-0.5,4.6-1.5,8.1c-1.1,3.9-1.8,6.5-2,8c-0.1,1.7-0.4,3.4-0.8,5.2
			c-0.5,2.1-1,7.6-1.5,16.6l-0.1,2.7V376.6z"/>
		<path class="st20" d="M1760.2,379.1c-6.9,9.2-13.7,16.1-20.4,20.7c-6.7,4.6-12.9,6.9-18.5,6.9c-3.8,0-7-1.6-9.8-4.8
			c-2.7-3.2-4.1-7.3-4.1-12.3c0-12.9,5.8-26.8,17.3-41.7c11.5-14.9,23-22.3,34.3-22.3c4.1,0,7.2,2.4,9.2,7.1c0.6,1.6,1.6,2.4,3,2.4
			c3.9,0,5.9,1.5,5.9,4.6c0,1.5-0.2,3.6-0.7,6.2c-2.6,14.5-4,24.7-4,30.6c0,11.9,2.3,19,6.8,21.3c2.2,1.2,3.2,2.6,3.2,4.3
			c0,1.5-1.1,3.1-3.2,4.6c-2.1,1.5-4.1,2.3-6.1,2.3c-3.8,0-6.9-2.6-9.3-7.8C1761.4,396.1,1760.2,388.7,1760.2,379.1z M1755.7,337.7
			c-6.5,0-14,6.1-22.6,18.2c-8.6,12.1-12.9,22.2-12.9,30.2c0,5.6,1.9,8.5,5.6,8.5c5.4,0,12.9-5.4,22.4-16.3
			c9.6-10.9,14.3-20.9,14.3-30C1762.6,341.2,1760.3,337.7,1755.7,337.7z"/>
		<path class="st20" d="M1818.2,376.6c0.5-0.9,1.1-2.1,1.8-3.7c3.3-7.6,6.4-13.6,9.2-18c2.8-4.3,5.9-8.5,9.2-12.5c3.4-4,6.4-7,9.2-9
			c2.8-2.1,5.3-3.5,7.5-4.3c2.3-0.8,4.4-1.2,6.5-1.2c4.3,0,7.7,1.3,10.4,3.9c2.7,2.6,4,5.6,4,9c0,1.5-0.5,2.9-1.4,4.1
			c-1,1.2-2.4,1.8-4.4,1.8c-2.1,0-3.9-0.9-5.7-2.7c-1.8-1.8-3.6-2.7-5.5-2.7c-5.1,0-12.2,6.2-21.2,18.5c-9,12.4-14.5,26-16.5,40.8
			c-0.5,3.8-1.4,6.3-2.8,7.6c-1.4,1.2-3.3,1.8-5.8,1.8c-2.4,0-4.1-1.8-5.2-5.4c-1.1-3.6-1.6-9.6-1.6-18.1c0-2.3,0.1-7.4,0.4-15.2
			c0.3-9.3,0.9-16.7,1.8-22.4c0.1-0.9,0.4-3.1,0.7-6.5c0.3-3.8,0.8-6.4,1.3-7.9c0.5-1.5,1.6-2.8,3.2-4.1c1.6-1.3,3.3-1.9,5.2-1.9
			c1.8,0,3.2,0.6,4.1,1.7c0.9,1.2,1.4,2.4,1.4,3.7c0,1.9-0.5,4.6-1.5,8.1c-1.1,3.9-1.8,6.5-2,8c-0.1,1.7-0.4,3.4-0.8,5.2
			c-0.5,2.1-1,7.6-1.5,16.6l-0.1,2.7V376.6z"/>
		<path class="st20" d="M1938.8,379.9c-9,7.8-17,13.5-23.8,17.1c-6.8,3.6-12.1,5.3-15.7,5.3c-4.9,0-8.6-2-11.1-6.1
			c-2.6-4-3.9-8.8-3.9-14.2c0-7.6,1.5-16.9,4.6-28c3.1-11.1,5.3-17.7,6.8-19.8c1.5-2.1,3.9-3.1,7.2-3.1c1.4,0,2.5,0.8,3.4,2.4
			c0.9,1.6,1.3,3.5,1.3,5.5c0,1.2-0.6,2.8-1.7,4.8c-2.6,4.6-4,7.2-4.2,7.6c-0.1,0.5-1.1,3.4-2.8,8.9c-1.8,5.4-2.6,10.5-2.6,15.3
			c0,1.7,0.4,4.3,1.2,7.8c0.8,3.5,2.5,5.3,5,5.3c2.7,0,6-0.8,10-2.5c3.9-1.6,8.4-4.3,13.3-8.1c5-3.7,8.3-6.7,10-9
			c1.7-2.3,2.9-4.9,3.6-7.9c0.7-2.9,1.2-9.3,1.5-19.1c0.3-9.8,2.7-14.7,7.1-14.7c2.6,0,4.4,0.7,5.1,2.1c0.8,1.4,1.2,4.1,1.2,8
			c0,3.2-0.2,7.3-0.7,12.1c-0.5,6.1-0.9,10.5-1,13.1c-0.7,13.5-2.4,27-5.3,40.6c-2.8,13.6-6.9,25-12.3,34.1
			c-5.4,9.1-12.8,13.7-22.3,13.7c-9.6,0-18.2-2.5-25.6-7.5c-7.5-5-11.2-9.3-11.2-12.8c0-1.6,0.4-3.2,1.1-4.8
			c0.8-1.6,1.7-2.4,2.9-2.4c0.6,0,1.2,0.5,1.9,1.4c6.4,9.9,16.5,14.8,30.3,14.8c7.1,0,13.1-6.2,17.9-18.7c4.8-12.5,7.5-24.2,8-35.1
			C1938.3,384.1,1938.5,382,1938.8,379.9z"/>
	</g>
	<g class="st19">
		<path class="st21" d="M1467.9,281.3c3.5,0,5.3,2.3,5.3,6.8c0,4-2.1,13.6-6.4,28.7c-2.7,9.5-4.8,20-6.3,31.5
			c-1.5,11.5-2.2,20.5-2.2,27c0,8.1,0.5,16.1,1.5,24.1c0.2,1.5,0.3,2.6,0.3,3.3c0,2.5-0.8,4.6-2.5,6.3c-1.7,1.8-3.4,2.6-5.3,2.6
			c-2.6,0-4.4-1.6-5.4-4.9c-1-3.2-1.5-8.5-1.5-15.7c0-16.4,2-36.8,5.9-61c3.9-24.3,7.1-38.5,9.4-42.6
			C1463.1,283.4,1465.5,281.3,1467.9,281.3z"/>
		<path class="st21" d="M1503.7,389.5c0,3.7,0.5,7.9,1.5,12.6c0.2,0.9,0.3,1.6,0.3,2.2c0,0.9-0.8,2-2.4,3.4
			c-1.6,1.4-3.3,2.1-5.1,2.1c-4.8,0-7.1-4.4-7.1-13.1c0-9,1.9-23.3,5.6-42.8c1.3-6.8,1.9-11,1.9-12.6c0-3.1,0.6-5.7,1.7-7.9
			c1.1-2.2,2.7-3.3,4.8-3.3c2.5,0,4.5,0.6,5.9,1.8c1.4,1.2,2.2,2.5,2.2,4c0,1.5-0.3,3.4-1,5.8c-3.7,12.9-6,22.2-6.8,27.8
			C1504.1,375.2,1503.7,381.8,1503.7,389.5z M1513.3,307.4c-1,0-1.8-1.1-2.4-3.3c-0.2-0.7-0.5-1.4-0.8-2.3c-1.3-3.2-2-6-2-8.3
			c0-2,1.2-4,3.5-6c2.3-2,4.9-3.1,7.8-3.1c1.4,0,3,0.6,4.8,1.7c1.8,1.1,2.6,2.2,2.6,3.2c0,1.6-0.6,4.4-1.8,8.2
			c-1.2,3.9-3.1,6.5-5.7,7.8C1516.7,306.7,1514.7,307.4,1513.3,307.4z"/>
		<path class="st21" d="M1551,364c6.3-11.4,13.8-20.7,22.5-27.8c8.7-7.1,16.6-10.6,23.6-10.6c3.9,0,7.2,1.8,9.9,5.4
			c2.7,3.6,4,7.9,4,13.1c0,15.2-5.7,29.6-17.2,42.9c-11.5,13.4-23.6,20-36.4,20c-3.5,0-6.7-0.9-9.6-2.8c-2.9-1.9-4.5-4.3-4.9-7.1
			c-0.2-2.3-0.9-4-2-5.1c-2.1-2.1-3.2-4.4-3.2-6.8c0-4.5,1.2-14,3.7-28.6l7.6-44c2.6-14.8,4.5-23.9,5.7-27.4c1.2-3.5,2.5-5.8,4-7
			c1.5-1.2,3.3-1.8,5.4-1.8c3.4,0,5.1,3,5.1,8.9c0,5.6-1.9,13.5-5.7,23.7C1559.9,318.8,1555.7,337.1,1551,364z M1549.2,388.5
			c2.5,4.8,5.6,7.1,9.3,7.1c5.6,0,11.5-2.3,17.7-7c6.2-4.6,11.6-11.2,16.1-19.6c4.5-8.4,6.8-15.5,6.8-21.3c0-2.6-0.5-4.8-1.4-6.7
			c-0.9-1.9-2.1-2.8-3.5-2.8c-6.8,0-15.1,5.6-25,16.7C1559.4,366.2,1552.7,377.4,1549.2,388.5z"/>
		<path class="st21" d="M1644.4,376.6c0.5-0.9,1.1-2.1,1.8-3.7c3.3-7.6,6.4-13.6,9.2-18c2.8-4.3,5.9-8.5,9.2-12.5c3.4-4,6.4-7,9.2-9
			c2.8-2.1,5.3-3.5,7.5-4.3c2.3-0.8,4.4-1.2,6.5-1.2c4.3,0,7.7,1.3,10.4,3.9c2.7,2.6,4,5.6,4,9c0,1.5-0.5,2.9-1.4,4.1
			c-1,1.2-2.4,1.8-4.4,1.8c-2.1,0-3.9-0.9-5.7-2.7c-1.8-1.8-3.6-2.7-5.5-2.7c-5.1,0-12.2,6.2-21.2,18.5c-9,12.4-14.5,26-16.5,40.8
			c-0.5,3.8-1.4,6.3-2.8,7.6c-1.4,1.2-3.3,1.8-5.8,1.8c-2.4,0-4.1-1.8-5.2-5.4c-1.1-3.6-1.6-9.6-1.6-18.1c0-2.3,0.1-7.4,0.4-15.2
			c0.3-9.3,0.9-16.7,1.8-22.4c0.1-0.9,0.4-3.1,0.7-6.5c0.3-3.8,0.8-6.4,1.3-7.9c0.5-1.5,1.6-2.8,3.2-4.1c1.6-1.3,3.3-1.9,5.2-1.9
			c1.8,0,3.2,0.6,4.1,1.7c0.9,1.2,1.4,2.4,1.4,3.7c0,1.9-0.5,4.6-1.5,8.1c-1.1,3.9-1.8,6.5-2,8c-0.1,1.7-0.4,3.4-0.8,5.2
			c-0.5,2.1-1,7.6-1.5,16.6l-0.1,2.7V376.6z"/>
		<path class="st21" d="M1760.2,379.1c-6.9,9.2-13.7,16.1-20.4,20.7c-6.7,4.6-12.9,6.9-18.5,6.9c-3.8,0-7-1.6-9.8-4.8
			c-2.7-3.2-4.1-7.3-4.1-12.3c0-12.9,5.8-26.8,17.3-41.7c11.5-14.9,23-22.3,34.3-22.3c4.1,0,7.2,2.4,9.2,7.1c0.6,1.6,1.6,2.4,3,2.4
			c3.9,0,5.9,1.5,5.9,4.6c0,1.5-0.2,3.6-0.7,6.2c-2.6,14.5-4,24.7-4,30.6c0,11.9,2.3,19,6.8,21.3c2.2,1.2,3.2,2.6,3.2,4.3
			c0,1.5-1.1,3.1-3.2,4.6c-2.1,1.5-4.1,2.3-6.1,2.3c-3.8,0-6.9-2.6-9.3-7.8C1761.4,396.1,1760.2,388.7,1760.2,379.1z M1755.7,337.7
			c-6.5,0-14,6.1-22.6,18.2c-8.6,12.1-12.9,22.2-12.9,30.2c0,5.6,1.9,8.5,5.6,8.5c5.4,0,12.9-5.4,22.4-16.3
			c9.6-10.9,14.3-20.9,14.3-30C1762.6,341.2,1760.3,337.7,1755.7,337.7z"/>
		<path class="st21" d="M1818.2,376.6c0.5-0.9,1.1-2.1,1.8-3.7c3.3-7.6,6.4-13.6,9.2-18c2.8-4.3,5.9-8.5,9.2-12.5c3.4-4,6.4-7,9.2-9
			c2.8-2.1,5.3-3.5,7.5-4.3c2.3-0.8,4.4-1.2,6.5-1.2c4.3,0,7.7,1.3,10.4,3.9c2.7,2.6,4,5.6,4,9c0,1.5-0.5,2.9-1.4,4.1
			c-1,1.2-2.4,1.8-4.4,1.8c-2.1,0-3.9-0.9-5.7-2.7c-1.8-1.8-3.6-2.7-5.5-2.7c-5.1,0-12.2,6.2-21.2,18.5c-9,12.4-14.5,26-16.5,40.8
			c-0.5,3.8-1.4,6.3-2.8,7.6c-1.4,1.2-3.3,1.8-5.8,1.8c-2.4,0-4.1-1.8-5.2-5.4c-1.1-3.6-1.6-9.6-1.6-18.1c0-2.3,0.1-7.4,0.4-15.2
			c0.3-9.3,0.9-16.7,1.8-22.4c0.1-0.9,0.4-3.1,0.7-6.5c0.3-3.8,0.8-6.4,1.3-7.9c0.5-1.5,1.6-2.8,3.2-4.1c1.6-1.3,3.3-1.9,5.2-1.9
			c1.8,0,3.2,0.6,4.1,1.7c0.9,1.2,1.4,2.4,1.4,3.7c0,1.9-0.5,4.6-1.5,8.1c-1.1,3.9-1.8,6.5-2,8c-0.1,1.7-0.4,3.4-0.8,5.2
			c-0.5,2.1-1,7.6-1.5,16.6l-0.1,2.7V376.6z"/>
		<path class="st21" d="M1938.8,379.9c-9,7.8-17,13.5-23.8,17.1c-6.8,3.6-12.1,5.3-15.7,5.3c-4.9,0-8.6-2-11.1-6.1
			c-2.6-4-3.9-8.8-3.9-14.2c0-7.6,1.5-16.9,4.6-28c3.1-11.1,5.3-17.7,6.8-19.8c1.5-2.1,3.9-3.1,7.2-3.1c1.4,0,2.5,0.8,3.4,2.4
			c0.9,1.6,1.3,3.5,1.3,5.5c0,1.2-0.6,2.8-1.7,4.8c-2.6,4.6-4,7.2-4.2,7.6c-0.1,0.5-1.1,3.4-2.8,8.9c-1.8,5.4-2.6,10.5-2.6,15.3
			c0,1.7,0.4,4.3,1.2,7.8c0.8,3.5,2.5,5.3,5,5.3c2.7,0,6-0.8,10-2.5c3.9-1.6,8.4-4.3,13.3-8.1c5-3.7,8.3-6.7,10-9
			c1.7-2.3,2.9-4.9,3.6-7.9c0.7-2.9,1.2-9.3,1.5-19.1c0.3-9.8,2.7-14.7,7.1-14.7c2.6,0,4.4,0.7,5.1,2.1c0.8,1.4,1.2,4.1,1.2,8
			c0,3.2-0.2,7.3-0.7,12.1c-0.5,6.1-0.9,10.5-1,13.1c-0.7,13.5-2.4,27-5.3,40.6c-2.8,13.6-6.9,25-12.3,34.1
			c-5.4,9.1-12.8,13.7-22.3,13.7c-9.6,0-18.2-2.5-25.6-7.5c-7.5-5-11.2-9.3-11.2-12.8c0-1.6,0.4-3.2,1.1-4.8
			c0.8-1.6,1.7-2.4,2.9-2.4c0.6,0,1.2,0.5,1.9,1.4c6.4,9.9,16.5,14.8,30.3,14.8c7.1,0,13.1-6.2,17.9-18.7c4.8-12.5,7.5-24.2,8-35.1
			C1938.3,384.1,1938.5,382,1938.8,379.9z"/>
	</g>
</g>
</svg>
